<svg version="1.1" xmlns="http://www.w3.org/2000/svg" xmlns:xlink="http://www.w3.org/1999/xlink" width="390.66" height="239.82044" viewBox="0,0,390.66,239.82044"><g transform="translate(-70.15889,-40.74623)"><g data-paper-data="{&quot;isPaintingLayer&quot;:true}" fill-rule="nonzero" stroke-linecap="butt" stroke-linejoin="miter" stroke-miterlimit="10" stroke-dasharray="" stroke-dashoffset="0" style="mix-blend-mode: normal"><path d="M146.50998,268.88644c-33.1827,0 -61.12659,-22.14614 -69.49696,-52.28523c6.02733,0.01252 9.5328,-0.31923 14.08478,-0.89509c1.80867,11.01482 14.39211,17.52262 23.59546,20.7345c11.32169,3.95115 16.58174,5.31673 23.11207,5.68169c0.87435,1.82343 1.74983,3.64701 2.73911,5.40498c3.22233,5.72611 6.61542,11.38759 10.54259,16.65533c0,0 2.26978,3.02638 5.87865,3.96028c-3.41352,0.48991 -6.90461,0.74354 -10.45569,0.74354z" fill="#fff700" stroke="none" stroke-width="0"/><path d="M146.50998,126.59919c21.30277,0 40.4464,9.1274 53.63807,23.63741c-9.10437,-1.7626 -18.60525,-2.35572 -26.63272,-2.83042c-12.8175,-0.75797 -26.2279,-0.72312 -39.03879,0.43245c-2.05467,-2.01345 -4.79326,-2.63049 -6.2788,-2.81958c-1.04745,-0.38699 -2.09089,-0.79979 -3.19297,-0.83629c-3.15595,-0.10452 -7.03372,2.46439 -9.46251,0.44649c-1.33957,-0.40115 -2.62683,-1.0692 -4.01872,-1.20346c-3.25054,-0.31355 -6.53043,-0.11741 -9.79604,-0.12912c-0.52706,-0.00189 -1.06983,0.00445 -1.6249,0.0203c12.53697,-10.43175 28.72867,-16.71776 46.40737,-16.71776z" fill="#fff700" stroke="none" stroke-width="0"/><path d="M165.08702,266.18262c8,-6 2,-14 2,-14c-2.48166,-3.28345 -4.55567,-6.75594 -6.48788,-10.29571c4.37517,-0.06356 8.75381,-0.17342 13.06591,-0.85344c6.72294,-1.0602 13.20183,-3.31652 19.80275,-4.97478c6.44828,-3.47797 13.12387,-6.56422 19.35,-10.42505c-8.71003,20.16053 -26.57611,35.54091 -48.44032,41.04852c0.23467,-0.15447 0.47122,-0.3208 0.70954,-0.49954z" fill="#fff700" stroke="none" stroke-width="0"/><path d="M191.9229,169.3342c0.00934,0.00091 0.01869,0.0018 0.02804,0.00267c-3.5307,-0.10599 -7.0653,-0.25317 -10.58996,-0.44752c-0.08984,-0.17672 -0.18184,-0.35235 -0.27596,-0.52684c3.61661,0.28789 7.2297,0.62086 10.83787,0.97168z" fill="#fff700" stroke="none" stroke-width="0"/><path d="M117.46384,215.99372c0.82548,0.16843 1.65141,0.33452 2.47795,0.49748c0.13768,0.23469 0.27651,0.46867 0.41656,0.70188c-0.99428,-0.39133 -1.96419,-0.79279 -2.89451,-1.19935z" fill="#fff700" stroke="none" stroke-width="0"/><path d="M432.43612,194.53394c0,39.29155 -32.26045,71.14363 -72.05573,71.14363c-39.79528,0 -72.05572,-31.85208 -72.05572,-71.14363c0,-39.29155 32.26045,-71.14364 72.05573,-71.14364c39.79528,0 72.05573,31.85209 72.05573,71.14364z" fill="#fff700" stroke="none" stroke-width="0"/><path d="M291.53353,195.91862v-30.09923h137.72677v30.09923z" fill="#ce9f00" stroke="none" stroke-width="0"/><path d="M369.97395,166.73149c0,15.61587 -12.65916,28.27504 -28.27503,28.27504c-15.61587,0 -28.27504,-12.65917 -28.27504,-28.27504c0,-15.61587 12.65917,-28.27503 28.27504,-28.27503c15.61587,0 28.27503,12.65916 28.27503,28.27503z" fill="#cfcfcf" stroke="none" stroke-width="0"/><path d="" fill="#ff0000" stroke="none" stroke-width="0.5"/><path d="" fill="#ff0000" stroke="none" stroke-width="0.5"/><path d="" fill="#ff0000" stroke="none" stroke-width="0.5"/><path d="M314.36906,209.60009c0,-5.52284 4.47715,-10 10,-10c5.52285,0 10,4.47716 10,10c0,5.52284 -4.47715,10 -10,10c-5.52285,0 -10,-4.47716 -10,-10z" fill="#ff0000" stroke="none" stroke-width="0.5"/><path d="M352.67717,205.0396c0,-5.52284 4.47715,-10 10,-10c5.52285,0 10,4.47716 10,10c0,5.52284 -4.47715,10 -10,10c-5.52285,0 -10,-4.47716 -10,-10z" fill="#ff0000" stroke="none" stroke-width="0.5"/><path d="M380.69341,220.77098c7.07107,7.07107 0,14.14213 0,14.14213l-2.43617,2.16154c-1.60168,1.06483 -3.95396,2.56746 -5.37966,3.79452c-4.24298,3.65183 -7.40897,9.22632 -13.46092,10.40661c-3.05287,0.59539 -6.19745,-0.57297 -9.30566,-0.68952c-7.02986,-0.2636 -13.66001,0.16009 -20.57909,-0.96186c-2.91467,-0.47262 -6.16048,0.40683 -9.12097,0c-1.64556,-0.22613 -3.23461,-0.75717 -4.85192,-1.13575c0,0 -9.70143,-2.42535 -7.27607,-12.12678c2.42536,-9.70142 12.12678,-7.27607 12.12678,-7.27607c3.85469,1.08543 7.60883,0.17499 11.56585,0.68845c3.22606,0.41861 6.47026,0.84735 9.72334,0.83717c2.10807,-0.0066 8.66532,-0.81951 12.33092,0.669c0.23084,-0.15776 0.4981,-0.30638 0.66416,-0.47636c0.60093,-0.61512 1.214,-1.21827 1.8242,-1.8242c3.30836,-3.28519 6.77244,-5.95844 10.64504,-8.54622l-0.61197,0.33734c0,0 7.07106,-7.07107 14.14213,0z" fill="#ff0000" stroke="none" stroke-width="0.5"/><path d="M115.54226,144.62924c-0.5875,-0.17594 -1.16495,-0.40321 -1.74556,-0.61427c1.50493,0.15464 2.91093,0.64302 4.14278,1.38989c-0.88417,0.00474 -1.70034,-0.19663 -2.39722,-0.77562z" fill="#ffffff" stroke="none" stroke-width="0.5"/><path d="M91.09779,215.70613c0.05173,0.31507 0.11228,0.62646 0.18132,0.93418c-0.45179,-0.23988 -0.86222,-0.51013 -1.23507,-0.8032c0.34596,-0.04212 0.69663,-0.0858 1.05375,-0.13098z" fill="#ffffff" stroke="none" stroke-width="0.5"/><path d="M382.7764,246.084c0,-5.52284 4.47715,-10 10,-10c5.52285,0 10,4.47716 10,10c0,5.52284 -4.47715,10 -10,10c-5.52285,0 -10,-4.47716 -10,-10z" fill="#fff700" stroke="none" stroke-width="0.5"/><path d="M334.87471,167.64359c0,-2.76142 2.23858,-5 5,-5c2.76142,0 5,2.23858 5,5c0,2.76142 -2.23858,5 -5,5c-2.76142,0 -5,-2.23858 -5,-5z" fill="#444444" stroke="none" stroke-width="0.5"/><text transform="translate(80.83894,99.46427) scale(1.34984,1.34984)" font-size="40" xml:space="preserve" fill="#fff700" fill-rule="nonzero" stroke="none" stroke-width="1" stroke-linecap="butt" stroke-linejoin="miter" stroke-miterlimit="10" stroke-dasharray="" stroke-dashoffset="0" font-family="Sans Serif" font-weight="normal" text-anchor="start" style="mix-blend-mode: normal"><tspan x="0" dy="0">ゲームクリア！</tspan></text><path d="M227.09902,202.7862c0,42.26661 -34.85243,76.53047 -77.84507,76.53047c-42.99264,0 -77.84506,-34.26386 -77.84506,-76.53047c0,-42.26661 34.85242,-76.53046 77.84506,-76.53046c42.99264,0 77.84507,34.26386 77.84507,76.53046z" fill="#fff700" stroke="#000000" stroke-width="2.5"/><path d="M139.768,183.61525c0,-2.07107 1.67893,-3.75 3.75,-3.75c2.07107,0 3.75,1.67893 3.75,3.75c0,2.07107 -1.67893,3.75 -3.75,3.75c-2.07107,0 -3.75,-1.67893 -3.75,-3.75z" fill="#000000" stroke="none" stroke-width="0.5"/><path d="M182.37794,186.07352c0,-2.07107 1.67893,-3.75 3.75,-3.75c2.07107,0 3.75,1.67893 3.75,3.75c0,2.07107 -1.67893,3.75 -3.75,3.75c-2.07107,0 -3.75,-1.67893 -3.75,-3.75z" fill="#000000" stroke="none" stroke-width="0.5"/><path d="M195.47129,221.17989c-5.33397,3.05963 -11.61612,4.0273 -17.53075,5.29071c-3.61271,0.7717 -7.56018,0.42498 -11.01768,1.62544c0,0 -1.18585,0.39529 -1.58114,-0.79057c-0.39529,-1.18586 0.79057,-1.58114 0.79057,-1.58114c3.61265,-1.1662 7.52616,-0.89013 11.25523,-1.6918c5.15697,-1.10863 10.5259,-1.95733 15.33125,-4.23462c-9.27853,1.98211 -18.93215,2.42359 -28.11043,2.42359c-10.73106,0 -20.83651,-3.70909 -31.15243,-6.45367c-0.34511,0.64712 -1.07221,0.64714 -1.07221,0.64714l-0.97111,-0.01387c0.66064,0.21844 1.27694,0.41388 1.69596,0.58148c5.30667,2.12267 10.19799,5.61128 16.12198,5.5973c2.95681,0.00616 5.57134,1.19429 8.53005,1.18473h0.23694c0,0 1.25,0 1.25,1.25c0,1.25 -1.25,1.25 -1.25,1.25h-0.23694c-2.96602,-0.00829 -5.60088,-1.19164 -8.53005,-1.18473c-5.92908,-0.01235 -10.58131,-3.19843 -15.86573,-5.30222c-1.77564,-0.70691 -3.94177,-1.26415 -5.60876,-2.22867c0.27969,0.79805 0.61953,1.57847 1.11095,2.31614c3.64491,5.47133 11.93455,7.1334 17.47413,8.30872c5.23882,1.02912 10.34363,3.52521 15.58979,4.4153c2.26869,0.38491 3.95387,-0.64287 6.12852,-0.83745c5.0482,-0.45169 9.95691,-1.82628 14.99948,-2.45953c6.23353,-2.44199 12.93123,-3.40514 18.91726,-6.8014c1.9623,-1.11334 3.14554,-3.37655 4.50162,-5.40816c-3.74718,1.18919 -7.27766,2.86494 -11.0065,4.09727zM128.43455,212.58325c0.3906,-0.94045 1.35094,-0.71632 1.35094,-0.71632c11.59223,2.72823 22.8485,7.43722 34.82285,7.43722c14.31834,0 29.38149,-1.26501 42.80135,-7.41608c0.83954,-0.06146 1.78733,-0.66948 2.51864,-0.18439c0.80756,0.53566 1.37702,1.71473 1.42081,2.79749c0.03522,0.87112 -0.78666,1.4844 -1.21888,2.19584c-1.31749,2.16864 -3.37694,5.43322 -5.13943,7.1098c-1.58112,1.50405 -3.70739,2.03168 -5.54688,2.8865c-5.1369,2.38718 -10.62315,3.42945 -15.84872,5.44828c-5.14846,0.68613 -10.16471,2.12264 -15.32959,2.51751c-2.34167,0.17902 -4.19312,1.23776 -6.66655,0.82157c-5.2842,-0.88914 -10.41168,-3.41809 -15.68707,-4.43277c-6.19396,-1.31419 -14.94997,-3.29002 -19.01553,-9.38741c-1.54722,-2.32047 -1.72994,-5.08863 -2.9779,-7.43856l-0.01049,-0.12059l-0.0303,0.01414l-0.46336,-1.35179c-0.06432,-0.17576 -0.09994,-0.36925 -0.09994,-0.57245c0,-0.80561 0.55965,-1.45867 1.25,-1.45867c0.14845,0 0.29086,0.03019 0.42296,0.08562l1.394,0.54223l-0.11029,0.38613c0.73875,0.24888 1.44467,0.54827 2.16341,0.83667z" fill="#000000" stroke="none" stroke-width="0.5"/><path d="M164.79764,221.72988c14.40752,0 29.98485,-1.05937 43.44545,-7.48655c0.26974,-0.1245 1.13754,-0.61327 0.89773,-0.42282c-2.71679,2.15753 -3.8996,6.50527 -6.87771,8.19495c-5.98603,3.39626 -12.68624,4.37915 -18.91977,6.82115c-5.04257,0.63325 -9.99801,2.04787 -15.04622,2.49956c-2.17465,0.19457 -3.8911,1.21023 -6.15978,0.82532c-5.24616,-0.89008 -10.3696,-3.42169 -15.60842,-4.45081c-5.53958,-1.17532 -13.82992,-2.85268 -17.47483,-8.32401c-0.98194,-1.47398 -1.35805,-3.12409 -1.85904,-4.73899c1.29389,0.71651 3.07591,1.08209 3.98603,1.26412l1.39027,0.01952c0,0 0.72729,-0.0012 1.0724,-0.64832c10.31591,2.74459 20.42283,6.44689 31.1539,6.44689z" data-paper-data="{&quot;noHover&quot;:false,&quot;origItem&quot;:[&quot;Path&quot;,{&quot;applyMatrix&quot;:true,&quot;segments&quot;:[[[445.09513,246.22499],[20.63183,4.7039],[-0.69022,1.1091]],[442.9507,247.3341],[[440.17025,247.30008],[0,0],[-1.82025,-0.31198]],[[432.19801,245.13454],[2.58778,1.22802],[1.00197,2.76776]],[[435.91727,253.24729],[-1.96388,-2.52623],[7.28982,9.37722]],[[470.86554,267.48746],[-11.07916,-2.01437],[10.47764,1.7638]],[[502.04512,275.05475],[-10.49233,-1.5255],[4.53737,0.65969]],[[514.30216,273.61947],[-4.3493,0.33348],[10.09641,-0.77414]],[[544.30113,269.40413],[-10.08514,1.08532],[12.46707,-4.18528]],[[582.13565,257.74733],[-11.97206,5.8208],[5.95623,-2.89591]],[[595.89284,243.71854],[-5.43359,3.69775],[0.47962,-0.3264]],[[594.29389,244.40595],[0.53948,-0.21338],[-26.9212,11.01542]],[[507.39998,257.28582],[28.81505,0],[-21.46213,0]]],&quot;closed&quot;:true}]}" fill="#ffffff" stroke="none" stroke-width="0.5"/><path d="M154.48562,226.53412c-0.23539,1.40619 -1.41235,1.12496 -1.41235,1.12496l-1.07194,-0.2584c-4.60944,-0.79681 -9.1295,-0.58966 -13.52788,-2.83511c-4.04564,-2.06537 -7.67333,-5.14861 -11.7752,-7.03903c0,0 -1.11442,-0.53259 -0.66865,-1.86407c0.44577,-1.33148 1.56019,-0.79888 1.56019,-0.79888c4.12671,2.02531 7.80267,4.99812 11.88674,7.09628c4.13988,2.12684 8.51358,1.86753 12.86428,2.60154l1.20324,0.28527c0,0 1.17696,0.28124 0.94157,1.68744z" fill="#000000" stroke="none" stroke-width="0.5"/><path d="M172.30574,227.64356c-0.30012,-1.20521 1.04207,-1.57174 1.04207,-1.57174l0.75508,-0.20532c10.71281,-3.30407 23.01245,-5.48994 32.39304,-11.92179c0,0 1.14054,-0.78051 1.90911,0.20827c0.76857,0.98878 -0.37197,1.76929 -0.37197,1.76929c-9.69209,6.62065 -22.17897,8.90638 -33.23101,12.32587l-0.85402,0.2341c0,0 -1.34219,0.36653 -1.6423,-0.83869z" fill="#000000" stroke="none" stroke-width="0.5"/><path d="M174.53358,227.20275c0.29945,1.2136 -0.91415,1.51305 -0.91415,1.51305l-0.46009,0.11353c-4.75463,1.15911 -9.77715,0.4088 -14.61393,0.39483c0,0 -1.24999,-0.00383 -1.24617,-1.25382c0.00383,-1.24999 1.25382,-1.24617 1.25382,-1.24617c4.59835,0.01487 9.48968,0.80818 14.00737,-0.32205l0.46009,-0.11353c0,0 1.2136,-0.29945 1.51305,0.91415z" fill="#000000" stroke="none" stroke-width="0.5"/></g></g></svg>