<svg version="1.1" xmlns="http://www.w3.org/2000/svg" xmlns:xlink="http://www.w3.org/1999/xlink" width="637" height="444" viewBox="0,0,637,444"><g transform="translate(75.5,32.2)"><g data-paper-data="{&quot;isPaintingLayer&quot;:true}" fill-rule="nonzero" stroke-linecap="butt" stroke-linejoin="miter" stroke-miterlimit="10" stroke-dasharray="" stroke-dashoffset="0" style="mix-blend-mode: normal"><path d="M-67.26777,-3.96776c1.76777,-1.76777 3.53553,0 3.53553,0l1.56611,1.87165c3.0305,7.97801 1.61616,14.83967 1.1623,23.03437c-0.60152,10.86066 -0.09936,22.01538 0.09305,32.88637c0.15561,9.56468 3.70999,18.27519 4.89594,27.70344c0.76042,6.04534 0.14369,12.25249 0.84734,18.34087c0.95622,8.2738 3.41145,16.43389 4.1574,24.70656c0.41555,4.60851 0.0101,9.59434 0.0101,14.22451c0,0 0,2.5 -2.5,2.5c-2.5,0 -2.5,-2.5 -2.5,-2.5c0,-4.47883 0.41231,-9.31496 0.0101,-13.77549c-0.7418,-8.22666 -3.19576,-16.35106 -4.14462,-24.58229c-0.70251,-6.09419 -0.07931,-12.32602 -0.85064,-18.37029c-1.22499,-9.59912 -4.73951,-18.40095 -4.92483,-28.15894c-0.19414,-10.99255 -0.69444,-22.26896 -0.08618,-33.25126c0.4116,-7.43155 1.96637,-13.75276 -0.8377,-20.96563l-0.43389,-0.12835c0,0 -1.76777,-1.76777 0,-3.53553z" fill="#000000" stroke="none" stroke-width="0.5"/><path d="M-74.5,410.8v-442h635v442z" fill="#ffffff" stroke="#000000" stroke-width="2"/><path d="M0,125.8c0,-1.38071 1.11929,-2.5 2.5,-2.5c1.38071,0 2.5,1.11929 2.5,2.5c0,1.38071 -1.11929,2.5 -2.5,2.5c-1.38071,0 -2.5,-1.11929 -2.5,-2.5z" fill="#ffffff" stroke="none" stroke-width="0.5"/></g></g></svg>