<svg version="1.1" xmlns="http://www.w3.org/2000/svg" xmlns:xlink="http://www.w3.org/1999/xlink" width="406.32361" height="343.12852" viewBox="0,0,406.32361,343.12852"><g transform="translate(-55.53648,-7.9458)"><g data-paper-data="{&quot;isPaintingLayer&quot;:true}" fill-rule="nonzero" stroke="none" stroke-linecap="butt" stroke-linejoin="miter" stroke-miterlimit="10" stroke-dasharray="" stroke-dashoffset="0" style="mix-blend-mode: normal"><path d="M58.51684,283.19753c-0.69074,-0.12411 -1.97608,-0.58172 -2.06355,-2.26908c-0.91681,-0.72809 -0.91681,-2.00894 -0.91681,-2.00894l0.1283,-2.61476c0.38573,-1.08668 0.5293,-2.29287 1.15718,-3.26005c0.71056,-1.09454 2.00362,-1.71275 2.76098,-2.77543c1.43061,-2.00736 1.57398,-4.67764 2.54664,-6.94261c1.14923,-2.67616 2.64436,-5.21436 3.56126,-7.97876c0.876,-2.64107 2.05884,-5.19566 2.66013,-7.91248c0.25759,-1.16387 -0.18792,-2.39697 -0.01283,-3.57608c0.38253,-2.57608 1.92982,-7.41351 2.91773,-9.73191c0.44212,-1.03756 1.35648,-1.81644 1.86469,-2.82328c0.82766,-1.63971 1.07784,-3.51421 1.72253,-5.2341c1.37455,-3.66705 3.57478,-7.03722 3.49586,-10.99738c0.00636,-7.22364 -0.82127,-14.5112 -1.80546,-21.58489c-0.23563,-1.69356 0.50172,-3.47551 0.06694,-5.12918c-0.65001,-2.47227 -3.47155,-3.86805 -4.50523,-6.20604c-1.40509,-3.17804 0.4437,-7.65485 0.7951,-10.76615c1.07291,-9.49946 -1.94566,-19.97375 1.01646,-29.16004c0.38572,-1.08668 0.57396,-2.26531 1.15718,-3.26005c0.41929,-0.71514 1.40552,-0.99967 1.77532,-1.74161c0.52347,-1.05025 0.34148,-2.34839 0.80132,-3.42802c0.42955,-1.00853 1.39193,-1.72892 1.8242,-2.7363c0.4741,-1.10486 0.42594,-2.38075 0.85367,-3.50437c1.09296,-2.87112 3.3156,-5.17741 4.81058,-7.86123c1.58516,-2.84571 2.92073,-5.82346 4.38384,-8.73381c2.23612,-4.44799 2.78821,-9.91389 4.52207,-14.50563c0.94845,-2.51175 2.67451,-4.68359 3.61063,-7.19997c2.68291,-7.21193 5.12936,-13.66642 10.61277,-19.14983c4.69017,-4.64996 10.42359,-6.80302 16.17506,-9.599c1.67802,-0.81574 2.74916,-2.5618 4.34454,-3.52923c0.82209,-0.49851 1.91104,-0.41882 2.73629,-0.9121c0.68843,-0.4115 1.00649,-1.28519 1.67675,-1.72567c2.0327,-1.33584 4.57754,-1.71025 6.68619,-2.92264c3.41662,-1.96442 6.52679,-4.63582 10.09496,-6.41602c0.78807,-0.39318 1.75686,-0.35392 2.52034,-0.79294c0.96338,-0.55395 1.46923,-1.9406 2.56414,-2.13069c1.38436,-0.24034 2.73417,0.649 4.10125,0.97351c0,0 2.3717,0.79057 1.58113,3.16228c-0.79057,2.37171 -3.16227,1.58114 -3.16227,1.58114c-0.45711,-0.28356 -0.85223,-0.99169 -1.37134,-0.85068c-0.6,0.16298 -0.55855,1.18574 -1.08425,1.5177c-2.74862,1.73569 -6.28742,2.79217 -9.12098,4.56049c-1.3394,0.83588 -2.42978,2.04406 -3.80245,2.82411c-1.91157,1.08629 -4.26292,1.31675 -6.08318,2.54995c-0.75999,0.51488 -1.18523,1.44919 -1.97164,1.92271c-0.82364,0.49594 -1.90925,0.42183 -2.73629,0.9121c-1.74436,1.03406 -2.97115,2.84396 -4.77644,3.76755c-5.18862,2.65451 -10.58897,4.35113 -14.83627,8.64296c-4.94515,4.94516 -6.99554,10.82761 -9.45338,17.33409c-0.97315,2.57617 -2.72571,4.81266 -3.68615,7.39359c-0.52286,1.40505 -0.38386,2.9926 -0.85712,4.41512c-0.43543,1.30882 -1.35881,2.41327 -1.84416,3.70442c-0.80119,2.13133 -0.89532,4.51749 -1.89763,6.56196c-1.49246,3.04429 -2.91524,6.12739 -4.56493,9.08943c-1.36885,2.45781 -3.50904,4.5116 -4.48262,7.15106c-0.45158,1.22424 -0.45702,2.59282 -0.97052,3.79241c-0.43139,1.00776 -1.39028,1.72962 -1.8242,2.73629c-0.52801,1.22494 -0.42499,2.67636 -1.02289,3.86875c-0.72307,1.44204 -2.07446,2.57481 -2.54009,4.11932c-1.16968,3.36273 -0.78381,6.62049 -0.78381,10.15461c0,5.92632 0.61979,12.23175 -0.02393,18.11444c-0.23831,2.17783 -0.839,4.32192 -0.88817,6.5122c-0.01432,0.63783 -0.43251,1.34131 -0.14093,1.90877c1.22238,2.37895 3.88822,3.98956 4.61575,6.56333c0.53432,1.89028 -0.21299,3.9111 0.06694,5.816c1.06662,7.25819 1.83684,14.78591 1.84293,22.19581c-0.06629,4.7161 -2.16353,8.35269 -3.80093,12.71716c-0.21255,0.56654 -1.7456,5.34734 -1.92587,5.71107c-0.47275,0.95388 -1.36203,1.67176 -1.7837,2.6493c-0.89839,2.08273 -2.23957,6.20247 -2.55486,8.51005c-0.1679,1.22883 0.25716,2.51021 -0.01283,3.72071c-0.65005,2.91446 -1.86422,5.67377 -2.81245,8.50529c-0.97688,2.91704 -2.52014,5.613 -3.73553,8.439c-1.07876,2.50831 -1.39183,5.39223 -2.92595,7.65096c-1.1162,1.6434 -2.8052,3.00762 -3.37862,4.90969l0.11723,0.94448l1.41539,0.52659c3.4241,5.18092 8.80841,7.8276 12.6226,12.57115c2.31708,2.88165 4.92757,5.36582 7.29678,8.20888c0.64976,0.77972 0.93951,1.83722 1.65861,2.5535c0.77665,0.77361 1.96257,1.04765 2.73629,1.8242c2.12174,2.12946 2.64233,4.5862 5.6283,5.86617c1.51432,0.64913 3.14269,0.77375 4.77712,0.7678c0.02608,-0.11643 0.04867,-0.18418 0.04867,-0.18418l0.9121,-2.73629c1.71192,-5.0204 5.04564,-9.19183 7.39721,-13.93554c1.95878,-3.95135 3.11966,-8.0523 5.09593,-12.01902c2.52464,-5.0674 5.78705,-9.69015 7.57301,-15.08985c0,0 0.79057,-2.37171 3.16228,-1.58114c2.37171,0.79057 1.58114,3.16228 1.58114,3.16228c-0.46591,1.38821 -1.04085,2.71965 -1.67971,4.01747c0.86735,1.55773 1.42497,3.29264 2.34673,4.8228c0.44373,0.73661 1.38176,1.08681 1.8242,1.8242c0.49465,0.82442 0.41744,1.91187 0.9121,2.73629c0.44243,0.73739 1.38176,1.08681 1.8242,1.8242c0.49465,0.82442 0.42183,1.90925 0.9121,2.73629c2.07882,3.50678 5.76006,6.43871 7.45644,10.33602c0.5003,1.1494 0.43642,2.48859 0.9121,3.64839c0.8872,2.16316 1.90784,2.24698 3.29546,3.9869c0.15414,0.19328 3.8733,5.78376 3.96082,5.95918c1.42993,2.86601 2.14622,6.5407 2.91586,9.61302c0.50383,2.1139 1.74621,3.98009 2.59722,5.97964c1.19894,2.81703 1.8367,6.38676 2.82172,9.34179l0.12829,1.70267c0,0 0,0.14469 -0.03481,0.36444c0.1779,0.35995 0.36653,0.7139 0.57353,1.05752c0.44373,0.73661 1.39763,1.07752 1.8242,1.8242c0.3751,0.6566 -0.03633,1.6677 0.48409,2.21632c1.59982,1.68648 5.36457,-1.75757 6.25848,-2.20245c5.5378,-2.75599 11.29535,-3.99951 17.27617,-4.8292c3.25851,-0.45204 5.68903,-1.81065 9.02598,-1.81065l1.03117,-0.35868c-1.20732,-3.73654 -1.71084,-7.93799 -2.19988,-11.46171c-0.58014,-4.18014 -2.3421,-8.66911 -3.63484,-12.67437c0,-4.88346 -1.95205,-8.96028 -2.7363,-13.68147c-1.02586,-6.17568 -0.03228,-13.30991 -0.03228,-19.55451c0,-2.29514 -0.01166,-4.59243 -0.01994,-6.89014c-0.00346,0.00175 -0.00693,0.00349 -0.01041,0.00523c-2.23607,1.11803 -3.3541,-1.11803 -3.3541,-1.11803l-0.75616,-1.55548c-0.89682,-1.3632 -1.69633,-2.80544 -2.34616,-4.30703c-1.08174,0.03569 -1.90197,-0.78454 -1.90197,-0.78454l-2.36613,-2.63525c-0.20879,-4.35037 -1.0871,-4.33885 -2.71288,-8.15421c-2.80489,-6.58247 -2.60158,-14.2382 -7.85595,-19.49257c-1.96917,-2.94107 -3.25983,-6.36851 -5.47258,-9.12098c-1.34699,-1.67553 -3.18192,-2.91084 -4.56049,-4.56048c-1.94496,-2.3274 -3.61175,-4.89777 -5.47258,-7.29678c-0.67317,-0.86785 -1.80232,-1.42887 -2.20054,-2.45246c-1.07406,-2.7608 -0.1903,-9.12822 -0.1903,-11.90188c0,-2.28587 -0.48936,-4.63495 0.0451,-6.85746c0.3844,-1.59849 1.47434,-2.9753 1.8282,-4.58083c0.66727,-3.02759 -0.01557,-6.27708 0.80982,-9.26545c1.46212,-5.29366 4.50384,-9.34494 4.88721,-14.9616c3.62187,-6.21837 6.71071,-12.59109 11.28298,-17.96225c3.06278,-3.59793 5.53228,-7.51053 9.91123,-9.72876c0.33376,-0.16907 5.17072,-1.72311 5.71107,-1.92587c1.0689,-0.40109 6.10046,-2.57818 7.75622,-2.85655c1.74182,-0.29284 3.60804,0.54592 5.29867,0.03459c1.30145,-0.39362 2.33658,-1.46662 3.64839,-1.82419c2.53232,-0.69025 5.24923,-0.06752 7.87276,-0.14621c4.31615,-0.12947 8.25779,-0.37289 12.36731,-1.71258c5.11697,-0.01542 8.54097,-2.68653 13.21456,-4.43749c3.85286,-1.44347 8.08414,-1.57886 11.95153,-2.76904c2.33356,-0.71815 4.35089,-2.41393 6.75734,-2.82655c2.65941,-0.456 5.90344,-0.03229 8.60934,-0.03229c6.55639,0 12.83226,-0.53073 18.70609,3.14919c1.23518,0.77383 2.08522,2.03709 3.12784,3.05563c0,0 0.55599,0.55599 0.73254,1.35617c0.58924,-0.26421 1.14808,-0.26421 1.14808,-0.26421c1.57876,0.08418 3.00847,-0.98669 4.46121,-1.61048c4.05929,-1.743 8.73642,-3.05436 12.92086,-4.62167c4.09991,-1.53566 8.61714,-2.51761 12.53089,-4.45882c1.09958,-0.54539 1.94419,-1.58783 3.11021,-1.97114c0.99955,-0.32859 2.11432,0.06456 3.1553,-0.08854c2.52583,-0.37148 5.04944,-0.9637 7.60224,-0.93083c0.97522,0.01256 1.99062,0.39037 2.92393,0.10727c1.04901,-0.3182 1.66758,-1.58022 2.73629,-1.8242c2.04141,-0.46603 6.18738,-0.54214 9.16963,-0.11123v-1.14443c0,0 0,-2.5 2.5,-2.5c0.19985,0 0.38372,0.01598 0.5529,0.04538c-0.03402,-0.08061 -0.07585,-0.15968 -0.12631,-0.23706c-0.65209,-1.00009 -2.01645,-1.42085 -2.60209,-2.46125c-0.08133,-0.14449 -2.1517,-7.8729 -2.08182,-8.19082c0.21215,-0.96514 5.83393,-6.36196 6.02508,-6.55311c1.79226,-1.79226 3.89168,-4.61881 6.03888,-5.9443c2.31845,-1.43121 4.95075,-2.2558 7.29678,-3.6484c0.84979,-0.50444 1.25622,-1.66103 2.18181,-2.00726c0.38833,-0.14526 6.14961,-0.28684 6.82975,-0.15802c5.70704,1.08094 7.84371,6.28146 11.56598,10.00373c2.09936,3.12569 3.84047,6.19433 5.7015,9.45113c1.83744,3.2155 4.21701,6.19076 4.86593,9.97534c0.49739,2.90087 0.03229,6.59396 0.03229,9.52143c0,0.92869 0.04694,5.93407 -0.1903,6.4293c-1.12539,2.34919 -6.34858,6.93067 -8.88202,7.8207c-0.9927,0.34875 -2.11432,-0.06456 -3.1553,0.08854c-6.34156,0.93267 -12.48902,0.96501 -18.94787,0.89854c-0.39885,-0.12861 -5.75954,-1.83794 -6.17051,-2.04613c-2.97355,-1.5063 -4.412,-3.77896 -6.87128,-5.78502c-0.99589,-0.81235 -2.37119,-1.20876 -3.13809,-2.24007c-1.35847,-1.82684 -1.54276,-4.11616 -1.51228,-6.37051c-1.11906,0.04932 -2.23897,0.07055 -3.35823,0.05625c-1.42551,-0.01821 -2.89082,-0.44634 -4.27554,-0.10727c-1.06475,0.26072 -1.67844,1.53679 -2.7363,1.8242c-1.88587,0.51237 -5.66688,-0.17328 -7.71578,0.08854c-1.24345,0.15889 -2.40661,0.74067 -3.64839,0.9121c-0.76573,0.10571 -1.58533,-0.33704 -2.31729,-0.08854c-0.91449,0.31046 -1.50004,1.24246 -2.36238,1.67726c-2.39659,1.20838 -5.02197,1.89607 -7.53526,2.83796c-5.9293,2.22208 -12.3234,3.85654 -18.09047,6.32351c-1.09934,0.47026 -1.88254,1.57212 -3.02322,1.93064c-0.3164,0.09945 -0.64149,0.14764 -0.97151,0.16668c0.01076,0.11075 0.01075,0.17688 0.01075,0.17688l-0.07464,1.51844c-2.33303,9.31321 -4.95449,18.48266 -6.32878,27.97415c-0.35926,2.48125 -1.4747,4.81414 -1.82419,7.29679c-0.93649,6.65249 -1.18626,13.53724 -4.96163,19.32325c-0.82535,1.13379 -1.28587,2.65965 -2.47605,3.40138c-1.54876,0.96519 -3.51521,0.98318 -5.28346,1.43436c-4.83041,1.23252 -9.65804,2.07746 -14.44619,3.47816c-4.53865,1.32771 -8.57791,3.92352 -13.26564,4.63109c-2.93231,0.4426 -5.8907,0.70684 -8.84778,0.9304c-2.47751,0.18731 -5.04942,-0.66467 -7.45363,-0.03787c-1.58431,0.41305 -2.95345,1.51107 -4.56049,1.8242c-2.41103,0.46978 -4.94405,-0.37822 -7.36909,0.01282c-3.77174,0.6082 -7.82103,3.2456 -11.46716,4.46448c0,0 -0.04128,0.01376 -0.11477,0.0322v2.15658c0,3.42275 0.82661,8.23157 -0.06687,11.51956c-0.35655,1.31209 -1.43058,2.34694 -1.8242,3.64839c-1.13507,3.75294 0.83292,8.86982 0.00968,12.7267c-0.33462,1.56772 -1.31099,2.92578 -1.96648,4.38868c-2.09161,12.78161 -1.62471,25.89091 -1.62471,38.8603c0,5.9683 -1.01849,12.86257 -0.03228,18.7536c0.78591,4.69462 2.73629,8.82469 2.73629,13.68147c1.39876,4.03687 3.04123,8.62927 3.66195,12.86437c0.60865,4.15279 0.99212,9.85515 3.29375,13.5847c0.45162,0.73179 1.39338,1.07996 1.8242,1.8242c0.39226,0.67764 0.07538,1.6626 0.55324,2.28285c0.83628,1.08546 2.75367,-0.01312 4.10528,0.21215c0.94835,0.15806 1.789,0.74778 2.73629,0.9121c1.96543,0.34093 3.98946,-0.03228 5.98423,-0.03228c5.5547,0 11.10945,-0.01049 16.66411,0.01216c5.54461,1.10892 11.51175,-0.22192 16.89588,1.0072c1.06871,0.24397 1.68373,1.51797 2.73629,1.8242c1.034,0.30083 2.16052,-0.21949 3.22939,-0.08854c3.44826,0.42246 6.74791,2.26687 10.12807,2.74984c2.57666,0.36816 5.2056,-0.03229 7.80843,-0.03229c4.75705,0 10.41175,0.84641 15.10521,0.03229c7.09416,-1.23056 13.76111,-3.10088 20.67974,-5.40517c2.14425,-0.51298 4.04383,-1.75833 6.07227,-2.62228c1.07963,-0.45983 2.37838,-0.27661 3.42802,-0.80131c0.76918,-0.3845 1.04756,-1.45497 1.8242,-1.82419c1.42515,-0.67753 3.01356,-0.98768 4.57468,-1.21787c1.24039,-0.1829 2.51043,0.07321 3.76138,-0.01131c12.57819,-0.8499 24.88941,-4.38074 37.51287,-5.2982c4.99477,-0.36302 10.04568,-0.95352 15.05109,-1.09225c1.45527,-0.04034 2.93353,0.3642 4.36621,0.10562c2.44274,-0.44088 3.35181,-4.20409 3.95126,-6.00243c4.42588,-6.63882 3.50516,-14.44989 6.28576,-21.65933c0.8481,-2.19892 2.63834,-3.90803 3.86648,-5.91955c1.32394,-2.16843 1.51324,-4.87435 2.65036,-7.14633c1.68355,-3.36374 4.47068,-5.56449 6.56914,-8.50678c2.22545,-3.12034 4.08158,-6.5084 5.84436,-9.95851c-0.20044,-0.33962 -0.33023,-0.77946 -0.33023,-1.34909c0,-2.5 2.5,-2.5 2.5,-2.5l-0.47465,0.41987c1.00822,-0.66328 1.91937,-1.50531 3.02467,-1.98986c0.55291,-0.24239 1.3904,0.30926 1.80656,-0.12808c0.31229,-0.32819 -0.41896,-0.8246 -0.4719,-1.27452c-0.28751,-2.44368 -0.36246,-6.20161 0.03228,-8.60933c1.23334,-7.52292 4.57166,-14.64881 4.52821,-22.40199c0,-2.52282 0.58549,-6.41033 -0.06401,-8.91024c-0.39511,-1.52081 -1.24926,-2.88817 -1.74214,-4.38017c-0.76855,-2.32652 -0.81011,-5.61442 -3.16151,-7.25878c-0.45663,-0.31933 -1.09699,0.21547 -1.65332,0.24674c-0.91066,0.05119 -1.8242,0.00331 -2.73629,0c-4.49946,-0.01631 -9.92253,0.8967 -14.24932,2.17269c-1.64042,0.48377 -3.17642,1.30701 -4.8408,1.70057c-4.41614,1.04425 -4.59445,0.06403 -8.35477,1.45748c-1.59035,0.58933 -2.99903,1.64091 -4.62706,2.11634c-4.78428,1.39713 -10.17489,1.17105 -15.06059,2.16265c-3.25631,0.6609 -6.5609,1.30829 -9.88358,1.29534c-3.28186,1.2951 -6.25434,2.87566 -9.38076,4.34639c-0.63703,0.29968 -1.54969,-0.04353 -2.06691,0.43408c-0.43735,0.40385 -0.15221,1.18459 -0.30815,1.7591c-0.46877,1.72692 -1.48681,3.3094 -1.72818,5.08247c-0.16405,1.20502 0.17199,2.44448 0,3.64839c-0.39195,2.74364 -1.42096,5.46619 -1.8242,8.20888c-0.48755,3.3162 0.03228,7.2226 0.03228,10.5778c0,3.19987 -0.41332,6.42245 -0.03228,9.59955c0.24753,2.06387 0.81186,4.10053 0.92486,6.17171c1.17476,0.07353 2.35033,0.16299 3.50375,-0.0301c2.96605,-0.49654 5.07517,-1.8242 8.20889,-1.8242l2.34618,-0.81609c0,0 2.37171,-0.79057 3.16228,1.58114c0.03957,0.1187 0.07121,0.23345 0.09563,0.34434c1.34342,0.618 1.34342,2.27043 1.34342,2.27043c-0.0204,1.98273 -0.6184,3.91719 -0.94438,5.87304c-0.46794,2.80762 1.08747,4.14038 -1.61204,6.8399c-1.03918,1.03918 -2.66299,1.32148 -4.10361,1.61205c-4.09924,0.8268 -9.44557,0.0374 -13.60934,0.03229c-3.13072,-0.00385 -6.23661,0.5612 -9.34894,0.9001c-4.82545,0.52544 -9.64869,0.1212 -14.43773,0.89181c-3.81911,0.61453 -7.77277,2.63448 -11.55875,3.58098c-7.47552,2.49732 -14.21906,5.65015 -22.18887,5.54001l-2.34618,0.81609c0,0 -2.3717,0.79057 -3.16227,-1.58114c-0.79057,-2.37171 1.58114,-3.16228 1.58114,-3.16228l3.1264,-1.00811c1.84771,-0.01902 3.7205,0.29176 5.54343,-0.01046c5.43109,-0.90042 10.82597,-3.65748 16.04841,-5.39471c4.01506,-1.00376 8.10209,-3.02066 12.15578,-3.71581c4.88056,-0.83695 9.837,-0.37949 14.7494,-0.93238c3.27317,-0.3684 6.54435,-0.92024 9.83818,-0.9241c3.18683,-0.00373 6.37369,-0.01317 9.56049,0c1.54012,0.00637 3.52787,0.90918 4.61692,-0.17987c0.96891,-0.96891 -0.01313,-2.75367 0.21215,-4.10528c0.2153,-1.29179 0.62824,-2.56676 0.8012,-3.86088l-1.06799,0.34437c-3.25509,0 -5.06496,1.30195 -8.20888,1.8242c-0.25084,0.04167 -5.40403,0.03228 -5.87304,0.03228c0,0 -2.37527,0 -2.49529,-2.31526c-0.91681,-0.72809 -0.91681,-2.00893 -0.91681,-2.00893c0.02004,-2.01608 -0.64738,-3.98149 -0.87982,-5.98423c-0.01664,-0.14336 -0.02518,-1.69518 -0.02942,-3.55998c-2.48892,0.66134 -5.38554,1.12803 -6.65245,1.37302c-3.22487,1.08423 -6.29468,2.74979 -9.64592,3.33672c-5.43595,0.95204 -11.62578,-0.28626 -17.14389,0.03343c-4.96594,0.2877 -9.31747,1.25388 -14.04044,2.64085c-1.33116,0.39092 -2.6692,0.79188 -4.0419,0.99307c-1.09268,0.16015 -4.74557,-0.51426 -5.3467,1.33324c-0.75108,2.30835 -0.49358,4.83193 -0.86388,7.23098c-0.77326,5.00971 -0.8345,9.89752 -1.66197,14.90424c0,0 -0.411,2.46598 -2.87698,2.05498c-2.46598,-0.411 -2.05499,-2.87698 -2.05499,-2.87698c0.83723,-4.97844 0.88669,-9.84902 1.65205,-14.84235c0.44058,-2.87441 -0.00596,-6.02643 1.29469,-8.62732c2.46472,-4.92868 8.21454,-3.68112 12.50174,-4.97047c5.06077,-1.522 9.82596,-2.52333 15.14669,-2.83173c5.28469,-0.30631 11.37003,0.94986 16.57065,0.03343c3.21441,-0.56642 6.14176,-2.21361 9.2377,-3.24729c2.62342,-0.51087 5.48591,-0.16084 7.91646,-1.27248c0.00181,-0.00083 0.00358,-0.00166 0.00531,-0.00251c0.00002,-0.08279 0.00004,-0.16396 0.00006,-0.24336c-0.12993,-0.17472 -0.40597,-0.39793 -0.48025,-0.58047c-0.65217,-1.60272 -0.98258,-3.32676 -1.66617,-4.91634c-2.61507,-6.08086 -6.86306,-12.38523 -8.114,-18.92459c-1.22242,-6.39026 -1.19728,-12.89135 -1.19728,-19.42813c0,-3.31871 -0.44561,-7.04867 0.01873,-10.33853c0.50533,-3.5802 1.82027,-6.47698 1.83774,-10.12807c0.89905,-2.78821 1.83224,-4.89058 1.79192,-7.80842v-1.8242c0,0 0,-2.5 2.5,-2.5c0.93264,0 1.51736,0.34793 1.88394,0.7842c7.12106,-2.00021 15.56985,-0.85344 22.91777,-1.48211c1.71115,-0.1464 3.43241,-0.15329 5.14981,-0.15673c0.6365,-0.00128 1.3236,0.40349 1.90415,0.14257c0.72116,-0.32411 0.89593,-1.42109 1.62441,-1.72841c2.82516,-1.19181 5.93372,-1.5885 8.95984,-2.08298c3.79296,-0.61979 8.56879,-0.05278 12.18667,-1.6475c0.97416,-0.4294 1.69543,-1.31095 2.6493,-1.7837c2.93087,-1.45257 6.13146,-2.14775 9.10132,-3.63867c2.00584,-0.99922 4.33196,-1.37167 6.18839,-2.62686c1.09426,-0.73986 1.67153,-2.13064 2.81887,-2.78517c1.13885,-0.64968 2.62734,-0.41908 3.80571,-0.99394c1.16498,-0.56833 2.09364,-1.53228 3.08482,-2.36758c1.44393,-1.21686 2.18339,-3.1044 3.51862,-4.43963c1.31921,-1.31921 3.27215,-1.97561 4.3949,-3.46559c6.91342,-9.17466 13.97744,-18.24295 17.81151,-29.32815c1.89072,-5.4665 3.30322,-10.97203 5.45766,-16.37304c1.47142,-5.92302 3.63053,-11.48712 5.45923,-17.28726c0.43142,-1.36833 0.49377,-2.86697 1.12868,-4.15357c0.37213,-0.75409 1.46407,-0.99926 1.79551,-1.77209c0.54604,-1.2732 0.32905,-2.76415 0.71992,-4.09321c1.60998,-5.47431 3.27314,-10.65309 4.51776,-16.25387c0.30318,-1.36428 1.7198,-6.49919 1.76564,-7.7688c0.00159,-0.04409 -0.86638,-7.22508 -0.91062,-7.96224c-0.0976,-1.62623 0.65663,-3.35401 0.10345,-4.88638c-0.3386,-0.93798 -1.32283,-1.53368 -1.71775,-2.44937c-0.49644,-1.15107 -0.42566,-2.49306 -0.9121,-3.64839c-0.72463,-1.72105 -2.08627,-3.09827 -3.08732,-4.67465c-2.25776,-1.31388 -4.33963,-2.93205 -6.66523,-4.12172c-2.01587,-1.03122 -4.50056,-0.87806 -6.52277,-1.89679c-0.89362,-0.45018 -1.39754,-1.43944 -2.17742,-2.06634c-2.10532,-1.69234 -3.79379,-2.30091 -6.48098,-3.20301c-3.7631,-1.26329 -7.72956,-0.9036 -11.63657,-1.76384c-5.07812,-1.11809 -10.30125,-3.85534 -15.35765,-4.53186c-3.27164,-0.43773 -6.61915,0.35391 -9.90238,0.01387c-1.25753,-0.13025 -2.42731,-0.75259 -3.68147,-0.91209c-5.66015,-0.71985 -11.8762,0.02677 -17.59237,-0.00576c-5.75399,1.67062 -11.86138,2.95238 -17.85598,3.45874c-2.5664,0.21679 -5.17797,-0.19251 -7.72418,0.1951c-6.03704,0.91903 -11.95487,2.59964 -18.02659,3.46205c-16.62782,2.36178 -33.29325,5.0697 -49.79154,8.27575c-2.36722,0.93236 -7.13028,2.9033 -9.5496,3.44819c-4.8485,1.09201 -9.98862,1.19864 -14.89017,2.17905c-6.05508,1.21115 -12.25101,2.06537 -18.27007,3.37c-4.48361,0.97181 -8.91583,3.31342 -13.47364,3.88583c-1.68365,0.21144 -3.40261,-0.1623 -5.09061,0.01109c-5.68895,0.58434 -11.18894,3.13369 -16.87598,3.64686c-1.60693,0.145 -3.25107,-0.30111 -4.84034,-0.02276c-1.57009,0.27499 -2.94676,1.242 -4.486,1.65621c-3.17122,0.85336 -6.43074,1.42715 -9.51507,2.55488c-3.72801,1.00509 -6.77929,2.17178 -10.61852,2.21129h-2.7363c0,0 -2.5,0 -2.5,-2.5c0,-2.5 2.5,-2.5 2.5,-2.5h2.7363c3.23068,0.04465 5.95815,-1.13047 9.1119,-1.97889c3.15675,-1.14412 6.48319,-1.75061 9.72723,-2.6168c1.68052,-0.44872 3.2025,-1.44967 4.91554,-1.7513c1.69385,-0.29825 3.44628,0.12688 5.15966,-0.02276c5.68366,-0.49636 11.21116,-3.05154 16.90472,-3.64993c1.62751,-0.17105 3.28427,0.20349 4.90938,0.01109c4.40018,-0.52094 8.78064,-2.87917 13.11078,-3.82094c6.04412,-1.31454 12.27013,-2.17317 18.35134,-3.38695c4.86394,-0.97081 9.96486,-1.07862 14.77458,-2.15452c1.91368,-0.42807 7.55996,-2.71314 9.24556,-3.36984c16.71333,-3.31591 33.63039,-6.03147 50.48769,-8.42585c6.09988,-0.86641 12.0494,-2.57097 18.11906,-3.47431c2.61057,-0.38853 5.28501,0.0061 7.91507,-0.21488c5.91222,-0.49673 11.89751,-1.82798 17.58225,-3.42806c6.13852,-0.03003 12.7977,-0.74866 18.89154,-0.00576c1.25497,0.153 2.42435,0.77801 3.68147,0.9121c3.82759,0.40826 6.20096,-0.52644 10.09762,0.01387c5.18615,0.71912 10.46722,3.42499 15.65368,4.58912c4.11053,0.92263 8.06312,0.55398 12.07797,1.88455c3.37512,1.11856 5.43011,1.95779 8.11258,4.09377c0.56331,0.44855 0.82557,1.26272 1.47097,1.58205c1.93824,0.959 4.31185,0.78559 6.2466,1.75161c2.79523,1.39567 5.26708,3.3625 7.92834,4.99925c0.33914,0.49162 3.9424,5.65697 4.20947,6.27052c0.5003,1.14939 0.42071,2.49515 0.91209,3.64839c0.4687,1.10001 1.57213,1.88254 1.93064,3.02322c0.22564,0.71791 0.04028,5.01423 0.10344,6.0588c0.12392,2.04921 0.97222,6.95833 0.91358,8.45552c-0.08011,2.04547 -1.39264,6.44347 -1.88275,8.64896c-1.26929,5.71183 -2.90132,11.00881 -4.60323,16.58166c-0.50117,1.64105 -0.42869,3.45049 -1.10427,5.02777c-0.34608,0.808 -1.45497,1.09253 -1.85289,1.8763c-0.48578,0.95683 -0.38681,2.11549 -0.6955,3.14321c-1.75583,5.84569 -3.99116,11.42836 -5.48595,17.37246c-2.17446,5.42081 -3.57667,10.97618 -5.48751,16.46249c-4.02599,11.55918 -11.26667,21.38705 -18.67241,30.87031c-1.24818,1.59833 -3.29209,2.3972 -4.72608,3.83119c-1.41793,1.41793 -2.23248,3.40389 -3.77816,4.68136c-1.34449,1.1112 -2.65867,2.31147 -4.21197,3.105c-1.0652,0.54417 -2.45299,0.23599 -3.49107,0.83025c-1.09258,0.62546 -1.60208,1.99533 -2.65371,2.68742c-1.99642,1.31387 -4.44506,1.77346 -6.58098,2.84573c-2.95957,1.47432 -6.24503,2.19653 -9.14064,3.65811c-2.27576,1.14871 -4.54484,2.50535 -7.05438,2.95348c-5.22319,0.9327 -11.62119,0.31467 -16.57889,2.47751c-0.85235,0.37185 -1.154,1.59153 -2.02399,1.91998c-2.68016,1.01185 -5.73112,0.14911 -8.58528,0.39583c-3.09263,0.26732 -6.18075,0.7142 -9.28492,0.7163c-4.39216,0.00297 -9.15149,-0.66977 -13.33041,0.78381c0,0 -0.06868,0.02289 -0.18656,0.0492c-0.21701,2.5075 -0.89895,4.55413 -1.78468,7.10053c0.01823,3.55392 -1.30968,6.48149 -1.81064,9.93808c-0.44582,3.07611 0.01873,6.62195 0.01873,9.72762c0,6.27622 0.00792,12.37302 1.11303,18.51413c0.75356,4.18751 3.43855,7.71341 5.08136,11.54049c0.09051,0.21086 0.18559,0.42573 0.28446,0.64422c0.00395,-0.02936 0.00796,-0.05867 0.01204,-0.08796c0.38123,-2.73906 1.43301,-5.47063 1.82419,-8.20889c0.50235,-3.51646 0.63144,-6.08777 1.92021,-9.51109c0.47107,-1.25128 0.58793,-2.75109 1.51604,-3.71349c0.85115,-0.88261 2.31937,-0.82145 3.40568,-1.39012c3.51954,-1.84244 6.89757,-3.40742 10.68539,-4.77459c3.28769,-0.01221 6.55853,-0.62041 9.78032,-1.27549c4.71846,-0.95939 10.03181,-0.68906 14.64098,-2.05833c1.54401,-0.45869 2.86764,-1.48762 4.38175,-2.03703c2.82299,-1.02435 5.9422,-0.91638 8.86479,-1.60707c4.60685,-1.08873 8.77553,-2.33975 13.4752,-3.06615c3.38859,-0.52374 6.03475,-1.07171 9.50149,-0.94123c1.27484,0.04799 2.75034,-0.44962 3.81926,0.24674c4.76171,3.10209 4.20844,5.58835 5.7412,10.19081c0.55677,1.67183 1.47351,3.22448 1.8917,4.93624c0.70695,2.89373 0.16882,6.97579 0.16882,9.92866c-0.03819,8.06104 -3.26359,15.39268 -4.59277,23.2029c-0.42176,2.47828 0.20349,5.29245 0.03228,7.80842c-0.0956,1.40492 0.33721,3.04556 -0.47189,4.19807c-0.77364,1.10201 -2.48558,1.04841 -3.66602,1.69611c-0.43739,0.23999 -0.85013,0.52033 -1.25692,0.81037c-2.24052,4.47845 -4.56943,8.97537 -7.44776,12.99918c-1.97839,2.76573 -4.62605,4.75895 -6.20024,7.91098c-1.18611,2.37498 -1.47001,5.16275 -2.82223,7.44724c-1.03312,1.74541 -2.74023,3.11838 -3.4303,5.02562c-2.67507,7.39346 -1.94738,15.31702 -6.48361,22.12136c-1.17707,3.53121 -2.92034,7.48557 -6.99392,8.59114c-1.81268,0.49196 -3.75734,0.0231 -5.63379,0.10563c-3.29992,0.14513 -6.58872,0.48051 -9.88314,0.71995c-11.67975,0.84888 -22.91291,2.62684 -34.47321,4.42297c-2.66762,0.41447 -5.31084,1.04943 -8.00402,1.23599c-1.87029,0.12955 -4.43188,-0.38099 -6.25751,0.59502c-0.75836,0.40543 -1.05508,1.43956 -1.82419,1.8242c-1.19302,0.59664 -2.64381,0.49487 -3.86876,1.02288c-2.22798,0.96036 -4.34849,2.24187 -6.6971,2.85031c-7.0813,2.36264 -13.99125,4.3685 -21.27676,5.54001c-5.02344,0.80777 -10.83216,0.03228 -15.90612,0.03228c-2.8698,0 -5.76837,0.37351 -8.60933,-0.03228c-3.33013,-0.47566 -6.55841,-2.29215 -9.93808,-2.72275c-1.34525,-0.1714 -2.76189,0.27849 -4.0674,-0.08853c-1.0553,-0.29667 -1.67154,-1.56349 -2.73629,-1.8242c-1.38472,-0.33907 -2.85003,0.08906 -4.27554,0.10727c-4.21604,0.05386 -7.51255,-0.09395 -11.66411,-0.92426c-5.39038,0.02634 -10.78097,0.01216 -16.17141,0.01216c-2.26174,0 -4.55209,0.3268 -6.78514,-0.03228c-0.94924,-0.15263 -1.78794,-0.75404 -2.73629,-0.9121c-3.0533,-0.50889 -3.74453,1.15344 -6.8399,-1.61205c-0.85351,-0.76255 -0.66975,-2.21581 -1.27096,-3.18973c-0.36279,-0.5877 -1.03895,-0.92958 -1.51644,-1.42571l-2.34116,0.75491c-3.44723,0 -5.78265,1.33473 -9.21598,1.83775c-5.36901,0.78661 -10.56542,1.78238 -15.55935,4.29178c-4.13667,2.07863 -7.03302,4.97262 -11.98347,1.44595c-0.95597,-0.68103 -0.71957,-2.25997 -1.3401,-3.25627c-0.45463,-0.72993 -1.38295,-1.0861 -1.8242,-1.8242c-1.03188,-1.72607 -1.56181,-3.73531 -2.68979,-5.40016c0,0 -1.20401,-1.80602 0.31455,-3.17429c-0.40908,-1.574 -0.84387,-3.13409 -1.4328,-4.49786c-0.97442,-2.25641 -2.25839,-4.4106 -2.87536,-6.78973c-0.67768,-2.71652 -1.28291,-6.08809 -2.55673,-8.62894c-1.88934,-3.76862 -5.64405,-6.30618 -7.33728,-10.12007c-0.50866,-1.14572 -0.42566,-2.49306 -0.9121,-3.64839c-1.55058,-3.68279 -5.13624,-6.43048 -7.13712,-9.73013c-0.49851,-0.8221 -0.41744,-1.91187 -0.9121,-2.73629c-1.32831,-2.21385 -3.23594,-4.16906 -4.56049,-6.38468c-0.40222,-0.67281 -0.72817,-1.38863 -1.043,-2.11032c-1.69138,2.89633 -3.38517,5.78687 -4.51873,8.96014c-1.15812,3.24205 -2.18973,6.2124 -3.72182,9.29825c-2.24666,4.52509 -5.64029,8.62075 -7.19636,13.42739l-0.63468,1.90404c0.42627,0.36763 0.76297,0.9484 0.76297,1.86588c0,2.5 -2.5,2.5 -2.5,2.5c-3.49744,0 -6.78636,0.30799 -10.13236,-1.12581c-3.77502,-1.61765 -4.53576,-4.3081 -7.14107,-6.9032c-0.77665,-0.77361 -1.96257,-1.04765 -2.73629,-1.8242c-0.83116,-0.83419 -1.23591,-2.01444 -1.98978,-2.91909c-2.36438,-2.83725 -4.99379,-5.31414 -7.29678,-8.20888c-1.73605,-2.18212 -3.94993,-3.38067 -6.0363,-5.1242c-2.39163,-1.99863 -4.36969,-4.27608 -6.14355,-6.77632zM174.90653,257.39376c2.37171,-0.79057 3.16228,1.58114 3.16228,1.58114c0.55172,1.70426 1.39923,3.32239 2.39945,4.80936c0.02747,-9.36301 0.31092,-18.71006 1.8691,-27.9241c0.6207,-1.32978 1.53984,-2.55765 1.86212,-3.98933c0.9059,-4.02433 -1.08257,-8.79259 0.00968,-12.81204c0.35655,-1.31209 1.43058,-2.34694 1.8242,-3.64839c0.8417,-2.78297 -0.06688,-7.43117 -0.06688,-10.3708v-2.73629c0,0 0.00001,-2.03998 1.84277,-2.43442c0.28874,-1.29411 1.69087,-1.76148 1.69087,-1.76148c4.01293,-1.33355 8.08342,-3.94652 12.24739,-4.6565c0.72385,-0.12342 7.01131,0.05668 7.22447,0.01283c1.60369,-0.3299 2.96865,-1.44121 4.56049,-1.8242c2.59885,-0.62527 5.35382,0.16723 8.01896,-0.03787c2.84556,-0.21899 5.68737,-0.50806 8.51515,-0.8938c4.33375,-0.59117 8.3518,-3.23917 12.5711,-4.48c4.85206,-1.42691 9.75447,-2.4743 14.69711,-3.54474c1.18784,-0.25725 2.53073,-0.06608 3.58336,-0.67362c0.68709,-0.39657 0.78156,-1.3808 1.17234,-2.0712c3.38625,-4.94099 3.32846,-11.42028 4.15935,-17.16066c0.35915,-2.48126 1.4748,-4.81413 1.82419,-7.29678c1.36491,-9.69861 4.06844,-19.06698 6.4406,-28.57591l-0.07465,-0.30576c0,0 0,-0.68601 0.35936,-1.33933c-0.16371,-0.26105 -0.28501,-0.58388 -0.33466,-0.98312c-1.54881,0.92177 -2.94085,-0.47028 -2.94085,-0.47028c-5.27461,-5.43704 -11.28039,-4.74036 -18.29838,-4.74036c-2.45508,0 -5.38733,-0.41926 -7.80843,-0.03228c-2.15006,0.34365 -4.04025,2.03675 -6.01203,2.64603c-3.79614,1.17301 -7.98756,1.28627 -11.76302,2.70355c-4.91996,1.84691 -8.71601,4.70055 -14.14837,4.6835c-4.26289,1.45595 -8.53745,1.63775 -13.0191,1.77492c-2.28997,0.07009 -4.67951,-0.64634 -6.87312,0.01468c-1.30185,0.3923 -2.3363,1.46764 -3.6484,1.82419c-2.60995,0.70924 -3.25056,-0.35994 -5.64651,0.0346c-2.40781,0.39649 -4.5523,1.75969 -6.83734,2.61604c-2.68615,1.00666 -5.2015,1.37472 -7.48381,3.23429c-7.48586,6.09929 -11.37996,15.1436 -16.36076,23.15285c-0.21354,5.55557 -3.38608,9.66532 -4.8522,14.84205c-0.81161,2.86575 -0.09715,5.99419 -0.72357,8.90603c-0.34292,1.59401 -1.40857,2.96248 -1.82019,4.54015c-0.4975,1.90687 0.04511,3.94123 0.04511,5.91192c0,2.7363 0.10431,5.47457 0,8.20888c-0.02274,0.59615 -0.42255,1.23007 -0.19031,1.77958c0.24368,0.57659 1.04747,0.71476 1.44786,1.19593c1.93805,2.32907 3.53626,4.96618 5.47259,7.29679c1.37384,1.65358 3.2207,2.87919 4.56049,4.56049c2.23235,2.80137 3.50239,6.14935 5.47259,9.12098c5.7609,5.7609 5.49991,13.5414 8.56181,20.63974c1.35128,3.13264 3.02671,4.57987 2.7597,8.26355l0.52693,0.41633c0.00704,-0.00239 0.0141,-0.00477 0.0212,-0.00714zM340.34928,110.42894c-0.07225,1.48534 -0.01543,3.03376 0.6001,3.70759c0.61293,0.67099 1.61885,0.84818 2.3345,1.40832c1.35434,1.06005 2.31506,2.56203 3.64839,3.64839c2.11935,1.72679 4.50279,2.23694 7.02436,3.11403c5.99333,-0.08283 11.65066,-0.11317 17.53605,-0.92565c0.76573,-0.10571 1.5778,0.31363 2.31729,0.08854c1.24485,-0.37891 5.1628,-3.93424 5.71155,-4.94867c0.71683,-1.32518 -0.1903,-3.00925 -0.1903,-4.51588c0,-2.67391 0.45819,-6.05587 0.03228,-8.72052c-0.49645,-3.10602 -2.75727,-5.64552 -4.25504,-8.26662c-1.7268,-3.02191 -3.31989,-5.87999 -5.24367,-8.79082c-2.2951,-2.29511 -3.8955,-5.89294 -6.67775,-7.66723c-1.00104,-0.63838 -4.88495,-1.1996 -5.93784,-0.72903c-0.6698,0.29936 -0.83957,1.26022 -1.46658,1.64113c-0.82169,0.49917 -1.91186,0.41745 -2.73629,0.9121c-0.73739,0.44243 -1.08682,1.38177 -1.8242,1.8242c-0.82443,0.49465 -1.90421,0.43043 -2.73629,0.9121c-1.32291,0.76579 -2.1141,2.20867 -3.19495,3.28953c-1.82419,1.8242 -3.5431,3.76014 -5.47258,5.47259c-0.32894,0.29193 -1.10064,0.19487 -1.15884,0.63081c-0.0753,0.56395 0.69509,0.92463 0.87928,1.46294c0.34429,1.00624 0.15325,2.19591 0.6873,3.11561c0.69637,1.19924 2.3333,1.73286 2.8705,3.01134c1.52871,3.63823 -1.39395,7.45952 -2.73233,10.32366c-0.00497,0.00051 -0.00993,0.00103 -0.0149,0.00154z" fill="#ff0000" stroke-width="0.5"/><path d="M167.40562,309.43462c-0.53883,-0.05227 -1.16177,-0.02347 -1.78531,0.05085c0.17706,0.37126 0.35873,0.71011 0.70948,0.69384c0.39847,-0.01849 0.74823,-0.3591 1.07584,-0.74469zM160.85789,305.4924c0.44121,-0.47341 0.9789,-0.91282 1.62451,-1.30933c1.65676,-1.01752 3.80226,-0.81905 5.71708,-1.15623c1.68535,-0.29677 3.65072,-1.68678 5.07949,-0.74493c2.40612,1.58612 2.21608,6.0459 2.18183,8.56102c-0.01571,1.15403 0.26304,2.36764 -0.10727,3.46075c-1.19881,3.53879 -6.13128,8.23309 -9.50323,9.73021c-1.31634,0.58444 -2.74586,1.38102 -4.16651,1.14419c-2.7863,-0.46449 -5.49202,-3.59312 -6.51494,-6.02698c-1.12516,-2.67712 -0.73688,-5.9483 0.15966,-8.7104c0.44091,-0.46001 3.98421,-4.23145 4.54327,-4.50956c0.3138,-0.1561 0.64352,-0.30288 0.9861,-0.43875z" fill="#e2ff00" stroke-width="0.5"/><path d="M92.46258,281.28471c0.00843,1.28777 0.02362,3.79307 -0.16595,5.27633c0.07103,1.53843 0.1814,3.10898 -1.0224,3.60609c-3.18951,1.31709 -5.00987,0.39546 -6.18673,-1.21685c-1.80489,-1.00179 -3.29954,-2.88 -3.99602,-4.94144c-0.10109,0.11061 -0.20404,0.2196 -0.30898,0.32684c0,0 -1.76777,1.76777 -3.53553,0c-1.76777,-1.76777 0,-3.53553 0,-3.53553c1.42609,-1.38446 2.47575,-3.91893 3.73907,-6.1785c0.16718,-2.02685 0.92344,-3.95659 2.64562,-5.67877c0.83477,-0.83477 1.54065,-1.92394 2.63525,-2.36613c1.1429,-0.4617 2.46305,-0.27162 3.693,-0.1903c1.51775,0.10034 3.42851,-0.34332 4.50406,0.73223c1.07555,1.07555 0.57919,2.99072 0.73223,4.50406c0.07755,0.76681 -0.05786,6.15284 -0.1903,6.4293c-0.5942,1.24036 -1.51358,2.28352 -2.54331,3.23267zM90.58627,270.75631c0.08512,0.07497 0.16648,0.15389 0.24424,0.23653c0.13569,-0.1171 0.20875,-0.2278 0.09792,-0.33862c-0.11195,-0.11195 -0.22375,-0.03625 -0.34216,0.1021z" fill="#d3ef00" stroke-width="0.5"/><text transform="translate(74.45424,201.3912) scale(0.5,0.5)" font-size="40" xml:space="preserve" fill="#00f0cd" fill-rule="nonzero" stroke="none" stroke-width="1" stroke-linecap="butt" stroke-linejoin="miter" stroke-miterlimit="10" stroke-dasharray="" stroke-dashoffset="0" font-family="Sans Serif" font-weight="normal" text-anchor="start" style="mix-blend-mode: normal"><tspan x="0" dy="0">どっちが</tspan><tspan x="0" dy="46.150000000000006px">ゴール？</tspan></text><path d="M376.39282,260.1273c-1.26128,-0.40196 -2.47855,-1.00247 -3.60769,-1.7509c-1.22328,0.11143 -2.50542,0.00438 -3.72329,0.00438c-1.70994,0 -3.67682,0.36283 -5.09558,-0.59163c-4.46763,-3.00554 -4.91722,-6.71577 -4.42744,-11.40397c0.35546,-3.40251 1.91386,-7.73098 4.81859,-9.86085c1.49832,-1.09863 3.53109,-1.15979 5.31596,-1.67573c1.14281,-0.33035 2.29836,-0.62021 3.46313,-0.86199c0.25667,-0.05328 0.61566,-0.23727 0.86518,-0.2218l0.02834,-0.04251l-0.29482,-0.29482l1.8242,-1.8242c0.90482,-0.90482 2.15482,-1.46447 3.53553,-1.46447c1.01107,0 1.95205,0.3001 2.73872,0.81609c0.67629,-0.36905 1.36063,-0.71945 2.04843,-1.05274c1.80147,-0.87295 3.51461,-2.95563 5.46271,-2.49494c3.32037,0.7852 6.42546,3.03385 8.44509,5.78385c2.29894,3.13032 2.84001,7.245 3.87302,10.98892c0.75682,2.74294 2.17551,5.64845 1.47871,8.40725c-2.47809,9.81141 -13.00087,8.13365 -20.36521,7.61772c-1.15939,-0.08122 -2.4761,0.04397 -3.70525,-0.01758c-0.90394,0.20671 -1.80657,0.21773 -2.67832,-0.0601zM393.27661,250.73284c0.8277,0.45803 0.0825,-0.99636 -0.57614,-2.34375c-0.19673,0.60743 -0.36218,1.23281 -0.57626,1.83029c0.39555,0.13819 0.78049,0.30765 1.1524,0.51346z" fill="#fff700" stroke-width="0.5"/></g></g></svg>