<svg version="1.1" xmlns="http://www.w3.org/2000/svg" xmlns:xlink="http://www.w3.org/1999/xlink" width="603.64066" height="298.52019" viewBox="0,0,603.64066,298.52019"><g transform="translate(-76.31074,-34.92875)"><g data-paper-data="{&quot;isPaintingLayer&quot;:true}" fill-rule="nonzero" stroke="none" stroke-width="0.5" stroke-linecap="butt" stroke-linejoin="miter" stroke-miterlimit="10" stroke-dasharray="" stroke-dashoffset="0" style="mix-blend-mode: normal"><path d="M126.8497,106.95604c-1.18585,-3.55756 2.37171,-4.74342 2.37171,-4.74342l1.99655,-0.63054c0.39242,-0.26934 0.78717,-0.54954 1.18436,-0.83542c-0.51828,-0.64315 -0.82853,-1.46098 -0.82853,-2.35128c0,-1.84332 1.32998,-3.376 3.08269,-3.6908l2.80519,-0.56104c0.84879,-0.79413 1.97232,-1.31068 3.08798,-1.80097c0.42448,-0.65662 0.82091,-1.18397 1.13613,-1.51537c0.05177,-0.05442 0.1037,-0.1085 0.15579,-0.16223c-1.02411,0.01403 -2.5275,-0.29336 -3.31491,-2.01783c-0.85378,0 -1.70756,0 -2.56134,0c-3.84134,0 -7.14268,0.15178 -10.95409,0.52025c-0.60178,0.05817 -1.31217,-0.28553 -1.81298,0.05317c-2.65963,1.79873 -1.50836,5.91666 -1.51941,8.51796c-0.00818,1.92508 0.52211,3.81517 0.8379,5.71419c0.46801,2.81433 0.39646,5.84864 0.86585,8.65847c0.15038,0.90021 0.71592,1.69725 0.86585,2.59754c0.13881,0.8335 -0.21056,1.71382 -0.01111,2.53493c0.3526,1.45164 0.81358,2.90185 1.30029,4.35531l0.00001,0.00004c1.71424,-2.60531 3.34275,-5.48565 5.29032,-7.91585c1.27625,-1.59252 3.02274,-2.76143 4.32924,-4.32924c0.71129,-0.85354 1.08577,-1.97383 1.87507,-2.75581c0.05797,-0.05743 0.11656,-0.11406 0.17574,-0.16993c-0.91019,0.65877 -1.80881,1.31276 -2.6949,1.89126l-2.91998,1.0083c0,0 -3.55756,1.18585 -4.74342,-2.37171zM140.84896,83.31777c12.25209,-3.49861 25.19655,-8.20752 37.90418,-8.3385c0,0 3.27769,0 3.27769,0c2.07107,0 3.75,1.67893 3.75,3.75c0,1.38992 -0.75618,2.60322 -1.87958,3.25096l-4.03817,2.4229l-0.04005,-0.06675c-0.12976,0.09991 -0.26193,0.1971 -0.39673,0.29131c-1.78084,1.24468 -4.16088,1.25499 -6.25854,1.82106c-2.4204,0.65317 -4.83758,1.20427 -7.23827,1.76576c0.12021,0.36736 0.18522,0.7597 0.18522,1.16723c0,0.93658 -0.34335,1.79296 -0.91103,2.45015c0.05997,0.26623 0.09161,0.54319 0.09161,0.82754c0,1.6869 -1.11384,3.11364 -2.64618,3.58491l-4.8345,1.6115c-0.86321,0.56211 -1.86867,0.82572 -2.88345,1.07291c0.33722,0.5627 0.53107,1.22116 0.53107,1.9249c0,2.07107 -1.67893,3.75 -3.75,3.75l-3.27769,0c-0.45463,0 -0.99552,0.00625 -1.58949,0.00883c-2.08757,1.93284 -4.81349,3.08652 -6.7515,5.04691c-0.68213,0.69001 -0.96717,1.69389 -1.58832,2.43927c-1.30651,1.56781 -3.05593,2.73436 -4.32924,4.32924c-1.86601,2.33728 -3.41514,5.1156 -5.06267,7.61296c-0.08527,0.12926 -0.94492,1.43519 -1.85069,2.82756c0.14734,0.50412 0.28598,1.00929 0.41258,1.51569l0.06463,1.39085c0,0 0,2.16462 -2.16462,2.16462c-0.3099,0 -0.57544,-0.04436 -0.80296,-0.1204c-0.09612,1.58836 0.37351,3.27291 0.37004,4.88256c-0.00742,3.44429 0.87119,5.77824 1.67703,9.05674c0.31887,1.29729 0.24963,2.69677 0.74296,3.93825c0.81523,2.05156 3.84067,4.12562 4.96405,5.65382c0.74109,1.00816 0.86092,2.40333 1.65842,3.36749c0.86475,1.04546 2.13579,1.67378 3.20367,2.51066c4.04119,5.0282 9.08413,9.02887 13.23867,13.92967c2.05047,2.41879 4.16606,5.3498 6.10754,7.85154c2.39457,3.08558 3.07704,7.13992 6.94773,8.85817c4.58588,2.03572 9.85166,1.54665 14.70954,1.54665c6.71213,0 13.42209,-0.14751 20.12092,0.29805c5.74596,0.38369 11.47687,1.07583 17.21834,1.43632c8.25877,0.51853 16.721,-0.00268 25.00174,-0.00268c6.92022,0 13.88806,-0.76331 20.2836,1.34382c1.4726,-1.26458 2.8932,0.15602 2.8932,0.15602l0.40216,0.40216c2.50031,2.57602 5.08239,4.23066 8.69983,5.13602c1.34771,0.33729 2.78763,0.06988 4.15649,0.30712c4.27116,0.74024 8.39448,2.4804 12.63054,3.40283c2.80422,0.61064 5.66217,0.94131 8.49297,1.41362c0.5144,0.1142 7.86224,1.74438 7.95624,1.77013c3.9546,1.0835 7.63065,2.94749 11.75869,3.39575c2.39678,0.26026 4.84104,0.32196 7.2326,0.01742c0.90537,-0.11529 1.69403,-0.73678 2.59754,-0.86585c2.35142,-0.33592 3.31602,0.53143 5.26965,-0.57052c1.66657,-0.94003 0.88854,-1.94979 1.89421,-3.62591c0.37234,-0.62056 1.09556,-0.96407 1.56512,-1.51077c-0.15672,-0.4386 -0.15672,-0.81461 -0.15672,-0.81461l0.11108,-1.55036c0.30929,-0.8323 0.43115,-1.77018 0.80066,-2.56856c-0.02301,-0.41483 -0.04479,-0.78424 -0.04589,-1.07616c-0.02166,-5.77213 0,-11.54476 0,-17.31694c0.02036,-1.63994 -0.56828,-3.23059 -0.8379,-4.84835c-0.30733,-1.84396 0.48489,-2.7819 -0.57052,-4.40381c-0.44523,-0.68421 -1.33015,-1.02095 -1.73169,-1.73169c-0.97465,-1.72519 -0.58299,-3.93166 -1.13123,-5.83577c-0.35712,-1.24034 -1.42693,-2.20915 -1.73169,-3.46339c-0.79594,-3.27571 0.01568,-6.88757 -0.83642,-10.27885c-0.70693,-2.81352 -2.38871,-6.45958 -4.00797,-8.86728c-1.12252,-1.66909 -2.607,-3.27129 -2.97819,-5.24818c-0.44287,-2.35867 -0.47399,-8.02468 1.53177,-9.72759c2.18999,-1.85931 6.753,-1.43337 9.26337,-1.44223c6.06093,0 12.12186,0 18.18279,0c3.82593,0 7.98156,-0.38539 11.77305,0.07566c4.23924,0.51549 8.38863,2.10065 12.66506,2.53062c3.77667,0.37973 7.44323,-0.32667 11.22225,0.58618c3.50925,0.84769 6.89025,2.43674 10.40157,3.46714c0.32034,-0.33923 0.81029,-0.59866 1.55967,-0.59866c2.16462,0 2.16462,2.16462 2.16462,2.16462v3.46339c0,2.88607 0.01226,5.77242 0,8.65847c-0.002,0.47137 -0.37993,4.38219 0.39428,5.57802c0.89014,1.37489 3.2032,0.69114 4.81823,0.96386c2.08077,0.35136 4.20183,0.94989 6.29436,0.67714c6.12197,-0.79795 11.18842,-3.29595 17.0246,-4.99623c5.51381,-1.60636 10.96432,-0.73332 16.09714,-3.35679c2.48773,-0.83297 5.22768,-1.09878 7.48298,-2.43903c0.95422,-0.56706 1.47696,-1.66624 2.31728,-2.39147c1.09248,-0.94285 2.28569,-1.76357 3.46339,-2.59754c0.32653,-0.23124 0.99763,-0.19624 1.04324,-0.59375c0.06203,-0.54057 -0.60846,-0.91134 -0.81267,-1.4157c-0.38591,-0.95314 -0.77514,-1.92181 -0.94898,-2.93532c-0.14637,-0.85339 0.14232,-1.74347 0,-2.59754c-0.1481,-0.88873 -0.72197,-1.67217 -0.85987,-2.56254c-0.1894,-1.22286 0.15687,-2.50268 -0.11172,-3.71061c-0.31575,-1.42005 -1.31081,-2.63182 -1.61484,-4.05442c-0.46578,-2.17936 -0.07074,-4.52946 -0.78956,-6.63892c-1.40239,-4.11548 -2.98911,-8.24849 -4.51836,-12.33466c-1.54196,-4.12012 -1.68742,-10.16396 -4.79802,-13.19995c-1.45578,-4.17526 -1.88139,-8.52331 -2.67206,-12.86413c-0.18685,-1.02585 0.18317,-2.23007 -0.38502,-3.10439c-0.27576,-0.42433 -1.00036,0.22427 -1.50557,0.19517c-4.27306,-0.2461 -8.38413,-0.51746 -12.68826,-0.52002c-4.42444,-0.00263 -8.65055,-0.58915 -13.05194,-0.86549c-7.37465,-0.46302 -14.92063,-0.0353 -22.32609,0.00036c-0.44084,0.89999 -1.14542,1.70236 -1.4348,2.66426c-0.20176,0.67065 0.04928,1.39993 0.05791,2.10022c0.03556,2.8847 0,5.77367 0,8.65847c0,1.00772 0.07464,5.83391 -0.32329,6.33309c-3.03669,3.80924 -4.91338,2.33934 -8.55481,2.74777c-1.43239,0.16066 -2.80726,0.69158 -4.24006,0.84852c-9.09148,0.99584 -18.85095,0.02786 -28.00958,0.02786c-8.9471,0 -19.62587,0 -28.57296,0c0,0 -0.19461,-0.00001 -0.46714,-0.05836c0.16382,0.56367 0.12933,1.29279 -0.59978,2.0219c-1.53062,1.53061 -3.06123,0 -3.06123,0c-1.81043,-1.82758 -4.21025,-3.91079 -6.75934,-4.61899c-0.75959,-0.21103 -1.58423,0.15292 -2.3647,0.04168c-2.70247,-0.38519 -5.34845,-1.1041 -7.99572,-1.77014c-3.10509,-0.78123 -5.87104,-2.64984 -8.88088,-3.52164c-2.67526,-0.77489 -5.4295,-1.41073 -7.9253,-2.64705c-0.47927,-0.23741 -0.92055,-0.8999 -1.42815,-0.73138c-1.44005,0.4781 -2.98483,2.92651 -3.66962,4.1449c-2.63944,4.69611 -2.30512,8.32319 -2.30512,13.63292c0,1.45661 -0.7529,3.03412 -0.16477,4.36672c0.28541,0.6467 1.21275,0.81396 1.57318,1.42205c0.9307,1.57026 0.67759,3.70484 1.73169,5.19508c2.29433,3.24365 7.3901,5.26841 7.74046,9.89423c0.13147,1.73575 -0.8384,3.50178 -1.9428,4.84729c-0.79302,0.96615 -2.56694,0.67952 -3.37577,1.63245c-0.70993,0.83642 -0.55257,2.12644 -0.7332,3.20856c-0.39154,2.3456 -0.99172,4.65295 -1.39105,6.99724c-0.27219,1.59797 0.14683,3.24644 0.02565,4.86289c-0.14688,1.95918 0.78438,4.50037 -0.63401,5.85985c-1.48129,1.41975 -4.07465,0.71085 -6.12434,0.61778c-5.25646,-0.23868 -9.96452,-3.26806 -15.20612,-3.76771c-6.0983,-0.61614 -12.17456,-0.54531 -18.29744,-0.54531c-3.59314,0 -7.48866,-0.41715 -11.06162,-0.00875c-2.84074,0.32471 -5.60224,1.17702 -8.43833,1.5401c-4.24794,0.54382 -8.64552,0.28209 -12.87224,0.95897c-2.6853,0.43003 -5.32221,1.15589 -8.02071,1.49333c-1.94241,0.2429 -3.96816,-0.19382 -5.86553,0.28769c-1.1668,0.2961 -2.08127,1.23597 -3.20971,1.65514c-3.91045,1.45255 -8.26139,1.34553 -12.35896,1.66454c-2.37571,0.90192 -4.88077,2.26367 -7.59623,0.81132c-2.60846,-1.39512 -3.46639,-5.01074 -2.81702,-7.6009c0.99994,-3.98842 4.13311,-6.48408 6.49366,-9.53349c1.81253,-2.34148 3.2867,-4.98295 5.41407,-7.04258c3.52154,-3.4094 7.52573,-4.19938 11.44835,-6.79142c2.2596,-1.49313 4.26959,-3.73935 6.93138,-4.2394c2.6814,-0.50373 5.45654,-0.03583 8.18485,-0.03583c6.06093,0 12.12186,0 18.18279,0c5.79838,0.00292 11.51063,0.74729 17.30656,0.83501c0.98917,0.01497 1.99267,-0.10925 2.96722,0.06087c0.76511,0.13357 1.40254,0.92101 2.17465,0.83675c1.40485,-0.1533 7.0028,-2.88684 8.15535,-3.78832c1.6117,-1.26061 1.33776,-3.66662 2.03025,-5.26653c1.4714,-3.39944 4.05048,-6.00968 4.95471,-9.70666c0.61175,-2.50118 0.62954,-5.31506 0.95198,-7.86106c0.30446,-2.40399 1.33866,-4.6679 1.74847,-7.05619c0.37116,-2.1631 -0.0273,-4.38936 -0.0273,-6.58407c0.0453,-3.54216 -0.7582,-6.17887 -2.98635,-9.03457c-0.55608,-0.7127 -1.41936,-1.17473 -1.88545,-1.94929c-0.43543,-0.72362 -0.22148,-1.75876 -0.74475,-2.42164c-0.54418,-0.68937 -1.57104,-0.81406 -2.24965,-1.37161c-1.52639,-1.25409 -2.47029,-3.20477 -4.17044,-4.21078c-2.75879,-1.63244 -6.57118,-2.63294 -9.60471,-3.498c-9.60043,-2.73769 -19.14531,-4.33596 -29.01832,-5.75408c-4.26022,-0.61192 -8.44419,-0.82876 -12.74009,-1.05898c-8.75029,-0.46893 -17.45445,-0.57278 -26.21543,-0.57278c-7.53208,0 -15.43259,-0.56722 -22.88579,0.81445c-2.93812,0.54466 -6.23669,2.13608 -8.98071,3.16536l-2.87318,1.07744c0,0 -2.0268,0.76005 -2.78685,-1.26675c-0.34075,-0.90865 -0.12137,-1.56269 0.22439,-2.00779c-3.20031,-2.67137 -7.15928,-3.90434 -11.08562,-5.38624c-6.38133,-2.40847 -12.74856,-4.64294 -19.46572,-5.86431c-2.32614,-0.42296 -4.73654,-0.37748 -7.02716,-0.96304c-0.57837,-0.14785 -1.02294,-1.23154 -1.53435,-0.92361c-0.92584,0.55746 -0.93487,1.96975 -1.60769,2.81549c-0.84424,1.06122 -2.11419,1.74763 -2.90105,2.85207c-0.6299,0.88413 -0.6502,2.10708 -1.26801,2.9997c-0.73508,1.06207 -1.89196,1.76866 -2.719,2.76079c-1.22578,1.47047 -2.12023,3.18813 -3.19287,4.77377c-0.18832,0.58003 -1.51891,4.70392 -1.67636,5.07242c-0.521,1.21931 -2.2038,3.9257 -2.46072,5.5793c-0.62182,4.00216 -1.07043,8.1542 -1.73169,12.12186c-0.15005,0.90026 -0.73344,1.69451 -0.86585,2.59754c-0.62175,4.24011 0.02795,9.23763 0.02795,13.50682c0,7.79263 0,15.58525 0,23.37788c0,23.95511 0,47.91021 0,71.86532c0,5.47772 -0.79123,11.62829 -0.01622,17.05246c0.90947,6.36519 4.44765,11.11212 7.51643,16.49494c0.60424,1.05986 0.90572,2.29191 1.61552,3.28419c0.68654,0.95976 1.76172,1.58297 2.5155,2.49087c0.60432,0.72789 0.81978,1.76788 1.53472,2.38749c1.639,1.42046 3.81074,2.07418 5.67778,3.1779c2.13483,1.26203 3.92491,3.05268 6.05363,4.32498c0.80018,0.47825 1.88366,0.36438 2.64897,0.89665c2.39561,1.66614 4.27084,3.9894 6.57668,5.77773c5.6324,3.4675 11.34636,6.97218 17.66353,9.06626c5.96571,1.97757 12.57002,2.14967 18.77999,2.14967c3.752,0 7.50401,0 11.25601,0c2.19336,0 4.41871,0.40148 6.58004,0.02795c0.89935,-0.15543 1.6965,-0.72053 2.59754,-0.86585c4.47617,-0.72193 9.64836,-0.02795 14.20029,-0.02795c6.77373,0 12.97559,-0.02124 19.5585,1.65363c2.62229,0.66718 3.8624,1.75822 6.37943,2.84038c2.50563,1.07725 5.28874,1.51291 7.79263,2.59754c1.07931,0.46754 2.00368,1.2937 3.13235,1.62483c0.71026,0.20838 1.48129,-0.10279 2.21992,-0.05459c3.98126,0.25979 8.26465,0.47806 12.21545,0.87307c3.88735,0.38866 7.59518,1.98513 11.38164,2.61371c1.7932,0.29768 3.64933,0.34079 5.37795,0.90298c3.8899,0.64569 7.83411,1.16517 11.73606,1.66226c8.50934,1.08405 17.41466,-0.65195 25.97394,0.00978c6.11853,0.47303 12.14258,1.25248 18.20174,1.73296c4.05642,0.32166 8.06246,1.47313 12.12186,1.73169c2.88799,0.18394 5.80164,0.28743 8.63935,0.85463c5.46132,0.00946 10.20614,1.05939 15.5869,1.73186c4.73247,0.59145 9.75082,1.12271 14.33016,2.7015c2.14492,0.7395 3.7833,2.50732 5.72051,3.68832c2.52929,1.54196 6.23414,2.29444 9.07737,3.25338c7.95111,2.6817 16.84566,4.20702 25.20446,4.21294c2.2487,0.03418 4.71129,-0.12916 6.61525,-1.32611c1.79274,-1.12703 1.54628,-2.48229 2.08117,-4.66857c0.86676,-3.54275 1.94828,-7.43115 2.21546,-11.0822c0.26637,-3.64 -0.00888,-7.40618 -0.00888,-11.06015c0,-2.74974 0.55905,-5.549 0.03906,-8.24913c-0.52777,-2.74057 -2.25338,-5.11516 -3.14252,-7.76066c-1.75265,-5.21474 -3.88059,-10.05425 -6.55366,-14.92064c-0.58392,-1.06304 -1.06515,-2.22171 -1.89522,-3.10602c-1.01029,-1.0763 -2.57037,-1.55233 -3.53018,-2.67387c-0.8719,-1.01882 -1.21723,-2.38979 -1.82584,-3.58469c-2.32553,-2.28678 -4.83384,-5.81407 -7.51105,-7.60785c-0.53028,-0.35531 -1.312,-0.02732 -1.8924,-0.293c-2.36245,-1.08139 -4.09163,-3.24659 -6.37819,-4.48039c-2.38263,-1.28564 -5.31898,-1.28356 -7.71066,-2.55231c-1.27481,-0.67627 -2.18887,-1.92072 -3.46339,-2.59754c-3.46422,-1.83963 -8.25803,-2.2894 -12.027,-3.2006l0.00006,0.00012c-4.30428,-1.04062 -11.37049,-2.31505 -14.24894,1.62574c-0.00425,0.96402 -0.01099,1.664 -0.02159,1.7359c-0.28596,1.93942 -1.88425,3.43948 -2.89287,5.12051c-1.03216,1.72027 -1.59391,3.97852 -3.30087,5.03256c-1.97112,1.21716 -4.55886,0.83356 -6.8522,1.16118c-0.90351,0.12907 -1.69167,0.75453 -2.59754,0.86585c-2.76344,0.33958 -5.58558,0.32591 -8.35266,0.01742c-6.75419,-0.75301 -13.45347,-3.74265 -20.11406,-5.22429c-0.19316,-0.03216 -8.49876,-1.41375 -8.58836,-1.43327c-4.17095,-0.90826 -8.243,-2.64153 -12.44716,-3.36703c-1.47512,-0.25456 -3.02385,-0.00775 -4.47511,-0.37466c-2.94599,-0.74482 -5.30315,-1.90184 -7.48487,-3.50444c-0.41376,-0.11569 -0.69455,-0.30288 -0.69455,-0.30288c-6.74417,-4.56224 -15.25782,-3.09985 -23.04301,-3.09985c-8.35462,0 -16.88394,0.51403 -25.21739,-0.00269c-5.76571,-0.3575 -11.52133,-1.05528 -17.29113,-1.44057c-6.6016,-0.44263 -13.21744,-0.28843 -19.83247,-0.28843c-5.44899,0 -11.34299,0.43787 -16.46095,-1.91674c-4.86367,-2.23762 -5.61109,-6.32723 -8.63753,-10.19047c-1.94981,-2.48892 -3.97596,-5.32485 -6.01431,-7.73371c-4.05696,-4.7944 -9.02012,-8.67465 -12.95057,-13.61179c-1.16976,-0.95003 -2.54743,-1.69001 -3.50928,-2.85007c-0.84908,-1.02405 -1.01778,-2.48694 -1.80497,-3.5593c-1.66533,-2.26858 -4.3296,-3.87623 -5.42613,-6.46803c-0.6041,-1.42787 -0.57357,-3.04936 -0.95511,-4.55208c-0.91588,-3.6072 -1.81233,-6.36501 -1.81998,-10.16004c-0.00503,-2.50165 -0.7329,-5.13817 0.07854,-7.50458c0.18258,-0.53249 0.85964,-1.69764 1.6523,-2.97423c-0.87686,-2.73224 -1.8964,-5.43992 -2.55763,-8.16049c-0.60534,-2.49062 -0.52392,-5.384 -0.88869,-7.93749c-0.60759,-4.25318 -1.73127,-8.0556 -1.74791,-12.38633c-0.01891,-4.92272 -1.0036,-8.75592 3.67569,-12.26237c0.93404,-0.69993 2.2941,-0.43542 3.44896,-0.60458c3.93802,-0.57684 7.52397,-0.55369 11.49107,-0.55369c1.05748,0 2.11496,0 3.17243,0c0.78057,-0.73435 1.71113,-1.00022 1.71113,-1.00022zM142.69106,50.31806c0,0 0.01288,0.01288 0.03511,0.03747c2.89604,-1.10716 6.23687,-2.65075 9.28414,-3.22622c7.75332,-1.46419 15.9436,-0.90865 23.78402,-0.90865c8.83811,0 17.61969,0.10592 26.4471,0.57898c4.42355,0.23706 8.73514,0.46858 13.12286,1.0966c10.06518,1.44064 19.80817,3.07589 29.5932,5.87683c3.50071,1.00207 7.69763,2.15795 10.84248,4.07576c1.79821,1.09658 2.87867,3.08901 4.48803,4.44769c0.92014,0.77682 2.18845,1.15523 2.94543,2.09177c0.61682,0.76316 0.48318,1.93134 0.98694,2.77344c0.37423,0.62557 1.13438,0.93563 1.57794,1.5141c2.83477,3.69694 3.89438,7.17845 3.94044,11.74577c0,2.42318 0.36401,4.87812 -0.0273,7.26949c-0.37737,2.30613 -1.43342,4.4776 -1.71493,6.79737c-0.32691,2.69392 -0.35674,5.70991 -1.02742,8.34348c-1.05154,4.12913 -3.57284,6.69192 -5.18774,10.45439c-0.9927,2.31284 -1.2638,5.20588 -3.16484,6.85534c-1.73475,1.50517 -8.78983,4.62995 -10.89328,4.87015c-1.04329,0.11914 -1.98494,-0.72053 -3.02042,-0.89494c-2.20694,-0.37172 -4.47876,0.05981 -6.71385,-0.05476c-4.32421,-0.22165 -8.49993,-0.78334 -12.84134,-0.78106c-6.06093,0 -12.12186,0 -18.18279,0c-2.46683,0 -4.961,-0.40269 -7.4004,-0.03584c-2.72924,0.41044 -2.91011,2.00844 -5.33609,3.59834c-2.42065,1.58641 -5.36922,2.23812 -7.81011,3.79319c-3.68927,2.35041 -5.5016,5.83955 -8.08406,9.16898c-1.32289,1.70554 -2.99535,3.14467 -4.16189,4.96074c-0.27969,0.43542 -2.99294,4.73821 -0.81994,5.61198c1.05647,0.42481 3.91662,-0.95207 4.58544,-1.21397c3.8054,-0.33522 8.19101,-0.12907 11.82495,-1.50524c1.28855,-0.48796 2.37936,-1.47805 3.71706,-1.80824c2.04981,-0.50597 4.22815,-0.10829 6.3232,-0.37006c2.6414,-0.33004 5.22052,-1.05175 7.84964,-1.46847c4.28607,-0.67935 8.72614,-0.43116 13.03053,-0.98221c1.74739,-0.2237 6.93084,-1.37124 8.59929,-1.55765c3.71064,-0.41457 7.72099,-0.00875 11.45041,-0.00875c6.26898,0 12.48635,-0.05903 18.73095,0.56707c5.31484,0.55949 10.10965,2.47963 15.30157,3.77838c0.84346,0.21099 1.96298,1.27331 2.53414,0.61778c0.62834,-0.72118 -0.52239,-1.84864 -0.63401,-2.79862c-0.48146,-4.09782 0.5435,-8.7696 1.451,-12.71673c0.40145,-1.74606 0.57238,-3.68207 1.64546,-5.11677c1.10089,-1.47189 4.76303,-1.62601 4.33127,-3.41263c-0.71611,-2.96327 -5.56638,-5.6722 -7.10446,-7.92052c-1.03064,-1.50656 -0.78362,-3.63523 -1.73169,-5.19508c-0.48166,-0.79247 -1.56393,-1.17328 -1.89021,-2.04134c-0.20637,-0.54904 -0.16477,-5.11634 -0.16477,-6.02345c0,-0.47756 -0.00863,-8.72997 0.02795,-9.00521c0.61153,-4.60152 4.82738,-11.78274 9.58257,-13.04595c1.84693,-0.49064 5.69287,2.2041 7.18838,2.70157c1.36711,0.45476 2.85669,0.43891 4.2385,0.84678c2.92656,0.86384 5.58567,2.68933 8.60421,3.43876c2.4602,0.6108 4.91207,1.30034 7.42138,1.65962c0.93405,0.13374 1.92458,-0.22256 2.83039,0.04169c2.91116,0.84924 5.50197,2.68466 7.72828,4.7235c-0.00004,-0.0064 -0.00006,-0.01282 -0.00006,-0.01925c0,-2.16462 2.16462,-2.16462 2.16462,-2.16462c8.94709,0 19.62586,0 28.57295,0c6.63816,0 13.27633,-0.00001 19.91449,0c2.55276,0 5.1216,0.2803 7.65829,-0.00577c2.47525,-0.27914 4.96111,-0.46878 7.42963,-0.80217c0.7441,-0.1005 1.64745,-0.179 2.11939,-0.76299c0.31321,-0.38756 -0.28369,-0.9628 -0.32328,-1.45953c-0.06877,-0.86311 0,-1.73169 0,-2.59754c0,-3.41083 -0.84276,-8.45276 0.0579,-11.75335c0.33979,-1.2452 1.40651,-2.21429 1.73169,-3.46339c0.24913,-0.95698 -0.0386,-1.97738 -0.0579,-2.96606c0,0 0,-0.16936 0.04737,-0.41333c-0.03104,-0.14594 -0.04737,-0.29733 -0.04737,-0.45252c0,-1.19549 0.96914,-2.16462 2.16462,-2.16462c1.19549,0 2.16462,0.96914 2.16462,2.16462c0,0.1552 -0.01633,0.30658 -0.04737,0.45252c0.04737,0.24397 0.04737,0.41333 0.04737,0.41333c-0.00207,0.14253 -0.00078,0.28548 0.0028,0.42872c7.3636,-0.04613 14.85382,-0.44763 22.18414,0.00689c5.78157,0.35849 11.35787,0.85697 17.16678,0.86139c4.30637,0.00327 4.63019,-0.17276 8.89179,0.55182c1.29364,0.21995 2.96229,-0.1142 3.84158,0.85984c1.24329,1.37728 1.1859,3.51714 1.71496,5.29556c1.1391,3.82907 0.98533,7.83603 2.15474,11.63811c2.86341,2.92777 2.55783,6.29538 3.69708,10.046c1.68362,5.54276 4.23861,10.87651 6.03517,16.37022c0.75385,2.30516 0.42995,4.84404 0.94215,7.21463c0.30232,1.39915 1.29049,2.5874 1.60084,3.98478c0.27737,1.24886 -0.06096,2.57142 0.13599,3.83545c0.38912,2.49732 0.96708,5.05016 1.65455,7.48986c0.35164,1.2479 1.20454,2.51471 0.91902,3.77938c-0.42288,1.87308 -4.7954,4.54035 -5.88354,5.46718c-1.01954,0.86839 -1.7241,2.1235 -2.8778,2.8036c-0.33386,0.19681 -7.20938,2.45987 -8.10226,2.75605c-1.23316,0.60462 -2.37393,1.45446 -3.69947,1.81386c-4.16897,1.13038 -8.61724,0.45399 -12.83728,1.69787c-6.70803,1.97722 -13.52666,5.99734 -20.80799,5.30626c-1.50844,-0.14317 -2.96789,-0.61503 -4.46065,-0.87499c-2.46712,-0.42966 -5.68135,-0.1833 -7.47178,-2.53316c-1.82164,-2.39082 -1.32708,-5.58661 -1.33741,-8.27553c-0.01109,-2.88607 0,-5.77238 0,-8.65847v-0.70248c-3.6663,-1.02158 -7.1758,-2.68827 -10.8227,-3.58812c-3.4951,-0.86239 -7.06861,-0.12854 -10.58495,-0.48031c-4.32655,-0.43282 -8.51817,-2.01745 -12.80205,-2.54518c-3.61379,-0.44518 -7.6015,-0.04361 -11.24727,-0.04361c-6.06093,0 -12.12186,0 -18.18279,0c-2.10948,-0.00842 -4.57448,-0.89232 -6.32188,0.28946c-0.99704,0.67429 -0.17197,2.4032 -0.17197,3.60685c0,1.39656 -0.28406,2.78547 0.54256,4.05707c0.4176,0.6424 1.22376,0.96494 1.64639,1.60403c1.8418,2.78515 3.82251,6.91538 4.6505,10.18136c0.59082,2.33047 0.90656,5.02897 0.95227,7.4727c0.01888,1.0096 -0.30922,2.05101 -0.057,3.02878c0.32239,1.24982 1.37952,2.22164 1.73169,3.46339c0.66461,2.34339 -0.67864,2.5887 0.60047,4.5544c0.44523,0.68421 1.33015,1.02095 1.73169,1.73169c0.99983,1.76974 0.82701,3.98137 1.16118,5.98636c0.30761,1.84568 0.87604,3.67076 0.8938,5.54182c0,4.61786 0,9.2357 0,13.85356c0,0.13309 0.00015,0.40716 0.0003,0.77728c4.58478,-2.2007 10.48702,-1.34335 15.25184,-0.20945c4.17409,0.99332 9.18159,1.58553 13.02665,3.57572c1.28158,0.66334 2.1938,1.91153 3.46339,2.59754c2.43588,1.31621 5.43432,1.33471 7.87459,2.64277c2.08664,1.11851 3.5775,3.22269 5.74368,4.17809c0.74103,0.32684 1.70064,0.06324 2.3753,0.51132c3.20952,2.13168 6.28102,6.14613 9.00157,8.90478c0.54585,1.11403 0.82941,2.40085 1.63755,3.34209c0.91852,1.06981 2.44585,1.47996 3.3966,2.52122c1.04234,1.14156 1.72002,2.57243 2.48227,3.91727c2.86018,5.04621 5.05232,10.21163 6.88123,15.66022c0.26838,0.79954 3.17894,7.7471 3.28883,8.31773c0.05096,0.26457 0.03906,8.56471 0.03906,9.06782c0,4.89159 0.30367,9.76501 -0.57442,14.58774c-1.25755,6.90685 -1.50276,15.88019 -9.84622,17.82608c-1.56476,0.36494 -3.21331,0.03495 -4.81997,0.05242c-8.84562,-0.04803 -18.16446,-1.60487 -26.57819,-4.43948c-3.16025,-1.0647 -7.113,-1.98013 -9.97127,-3.6734c-1.67496,-0.99227 -2.9834,-2.67939 -4.8378,-3.27209c-4.35136,-1.39076 -8.90712,-1.93475 -13.37695,-2.49359c-5.39597,-0.67462 -10.12447,-1.69109 -15.5836,-1.73153c-2.79496,-0.55933 -5.66507,-0.65847 -8.50945,-0.84343c-4.06224,-0.26415 -8.0643,-1.41229 -12.12186,-1.73169c-6.05595,-0.47671 -12.05398,-1.25061 -18.16385,-1.73043c-8.62648,-0.67745 -17.55722,1.0305 -26.14504,-0.02385c-4.09789,-0.50311 -8.25693,-1.08467 -12.33953,-1.7675c-1.60201,-0.54886 -3.34255,-0.54605 -5.01222,-0.82871c-3.71049,-0.62817 -7.32637,-2.20863 -11.13039,-2.58138c-3.92395,-0.3845 -8.07369,-0.56985 -12.02827,-0.85863c-0.98925,-0.07224 -2.01992,0.21255 -2.97516,-0.05459c-1.35354,-0.37853 -2.50059,-1.28966 -3.79443,-1.83856c-2.51184,-1.06562 -5.28239,-1.52495 -7.79263,-2.59754c-1.59309,-0.68072 -4.006,-2.20849 -5.86024,-2.66296c-6.23,-1.52697 -12.0059,-1.50151 -18.42097,-1.50151c-4.27929,0 -9.31853,-0.75177 -13.50682,-0.02795c-0.89935,0.15543 -1.6965,0.72053 -2.59754,0.86585c-5.80261,0.93586 -12.65697,0.02795 -18.52953,0.02795c-6.68252,0 -13.70904,-0.26878 -20.13252,-2.36637c-6.7207,-2.19465 -12.80061,-5.93232 -18.77748,-9.62088c-2.24556,-1.74346 -4.04874,-4.03482 -6.38622,-5.65298c-0.73438,-0.50839 -1.78095,-0.37427 -2.54611,-0.83504c-0.96687,-0.58223 -1.62796,-1.5757 -2.54644,-2.23161c-3.01042,-2.14982 -7.179,-3.44736 -9.96587,-5.85076c-0.85983,-0.74152 -1.2004,-1.93653 -1.92867,-2.8076c-0.81396,-0.97355 -1.94264,-1.67113 -2.67958,-2.70421c-0.79067,-1.10838 -1.17123,-2.46113 -1.84787,-3.64258c-3.38085,-5.90315 -7.07353,-11.17092 -8.06882,-18.13895c-0.80104,-5.60804 -0.01622,-11.9219 -0.01622,-17.58143c0,-23.95511 0,-47.91021 0,-71.86532c0,-7.79263 0,-15.58525 0,-23.37788c0,-4.53019 -0.59982,-9.69982 0.02795,-14.20029c0.56004,-4.01494 2.08319,-7.89336 2.58013,-11.98843c0.10966,-0.90371 -0.14001,-1.83435 0.01741,-2.73098c0.6999,-3.98652 3.20185,-7.98366 4.52139,-11.86031c0.16847,-0.25581 3.50956,-5.3471 3.73391,-5.6164c0.74084,-0.88927 1.81939,-1.48119 2.47608,-2.43429c0.61592,-0.89392 0.63604,-2.11706 1.26801,-2.9997c0.89082,-1.24414 2.18394,-2.14564 3.22142,-3.2704c1.23316,-1.33692 1.93238,-3.35704 3.5874,-4.11129c1.1371,-0.51821 2.42581,0.61698 3.66073,0.80809c2.31601,0.3584 4.66027,0.53226 6.96605,0.95147c6.97811,1.26868 13.59502,3.57285 20.22359,6.07473c5.04309,1.90347 9.8505,3.56536 13.75216,7.42066z" fill="#ff0000"/><path d="M659.82445,330.97271c-0.7193,0.15605 -1.235,0.15605 -1.235,0.15605l-3.88821,-0.42871c-1.26363,-1.13256 -2.87229,-1.97092 -3.79089,-3.39767c-1.93848,-3.01079 -1.68424,-5.20145 -0.55212,-8.20779c0.51522,-1.36817 0.88469,-2.92075 1.93821,-3.93437c1.13653,-1.0935 2.77892,-1.52407 4.26981,-2.03855c0.46325,-0.15986 0.94057,-0.2941 1.42852,-0.40625c1.0623,-1.20527 2.15405,-2.37538 3.49958,-3.22384c1.78036,-1.12265 3.50072,-2.81911 5.60349,-2.9105c2.39061,-0.1039 4.33842,2.05655 6.33759,3.3715c0.71942,0.4732 1.69798,0.55013 2.31057,1.15529c1.31618,1.30023 2.98207,2.61579 3.34354,4.43025c0.1837,0.92212 0.08574,1.86217 -0.14564,2.79391c0.15774,0.2866 0.30633,0.606 0.44524,0.96592c1.01855,2.639 0.5065,4.82108 -0.37353,7.19578c-0.5704,1.53918 -0.69687,3.39708 -1.85272,4.5626c-2.9754,3.00031 -6.38544,2.31886 -10.01927,2.3408c-2.42684,-0.60072 -5.03036,-1.31066 -7.31916,-2.42443z" fill="#e2ff00"/><path d="M377.06875,240.9168c-0.34116,0.82135 -0.73063,1.60555 -1.14924,2.3667c0.50302,-0.55942 0.95014,-1.22793 1.52006,-1.59251c-0.00973,-0.03671 -0.01993,-0.07334 -0.03061,-0.10989c-0.07098,-0.24285 -0.19258,-0.45999 -0.3402,-0.6643zM384.38567,248.88194c-0.12729,0.93586 -0.33131,1.88233 -0.56577,2.78864c-0.14211,0.54932 -0.31146,1.09536 -0.50658,1.63459c-0.00293,1.51725 -0.00693,3.03443 -0.01164,4.55147c-0.00559,1.80018 0.53699,3.69265 -0.03228,5.40046c-0.04241,0.12724 -0.08913,0.25235 -0.13974,0.37554l0.04373,0.01458l-0.98177,2.94531c-0.31417,1.02156 -1.26534,1.76412 -2.38994,1.76412c-1.1246,0 -2.07576,-0.74256 -2.38994,-1.76412l-0.98177,-2.94531l0.02935,-0.00978l-0.05795,-0.08182c-0.17926,-0.80177 -0.2362,-1.64595 -0.42539,-2.44428c-1.07156,0.34527 -2.04051,0.52626 -3.90283,0.60583c-2.30656,0.09855 -5.13112,1.46571 -6.92598,0.01367c-0.73944,-0.5982 -0.98988,-1.50422 -1.03633,-2.51211c-1.40177,-0.83097 -2.66069,-1.89716 -2.80916,-3.36209c-0.00276,-0.02722 1.0005,-1.0381 2.19031,-2.22214c-1.08624,-0.95446 -1.89242,-2.17498 -2.19031,-3.77786c-0.26854,-1.44494 1.72911,-2.37729 2.56664,-3.58497c2.60504,-3.75636 4.05993,-7.03276 7.34838,-10.34838c0.3865,-0.20436 0.76092,-0.46205 1.13196,-0.73467c1.18383,-2.20227 2.78952,-4.13433 6.08497,-3.74717c0.66358,-0.16197 1.38825,-0.16325 2.17938,0.05051c3.12402,0.84413 2.67913,6.17969 2.68866,8.36468c0.0009,0.20617 0.00176,0.41235 0.00258,0.61853c0.31915,1.02197 0.57354,2.02448 0.74594,3.00574c0.68117,-0.20966 2.1489,-0.4196 2.98755,1.2577c1.11803,2.23607 -1.11803,3.3541 -1.11803,3.3541c-0.51689,0.25772 -1.02769,0.52133 -1.53404,0.78923z" fill="#e2ff00"/><path d="M442.94932,104.03311c0.15019,0.00249 2.49246,0.08007 2.49246,2.49992c0,2.5 -2.5,2.5 -2.5,2.5l-2.67986,-0.73223c-1.02838,-1.09934 -2.126,-1.72253 -3.25097,-2.36433l0.22195,0.59656c0,0 0,0.93254 -0.56955,1.65852c0.44974,2.44508 0.83855,4.80254 0.56955,7.46246c-0.15305,1.51334 0.34332,3.42851 -0.73223,4.50406c-0.94123,0.94123 -2.53465,0.60893 -3.92414,0.67483c-0.05978,0.93467 -0.25238,1.79645 -0.94234,2.3218c-1.22598,0.93348 -3.06003,-0.38617 -4.59852,-0.47248c-3.79296,-0.21279 -7.65514,0.09809 -11.45682,0.03228c-1.15397,-0.01997 -2.39274,0.33021 -3.46075,-0.10727c-1.60279,-0.65653 -3.35418,-1.53487 -4.21602,-3.03728c-0.91694,-1.59847 -0.49606,-6.82803 -0.34306,-9.82281c-0.36789,0.44607 -0.75029,0.87915 -1.15757,1.28996l-2.47393,1.3804c0,0 -2.23607,1.11803 -3.3541,-1.11803c-1.11803,-2.23607 1.11803,-3.3541 1.11803,-3.3541l1.17446,-0.4438c1.3254,-1.31165 2.31432,-2.9245 3.4828,-4.37769c2.96774,-3.69085 9.73787,-7.00563 9.46643,-12.0965c0,0 0,-2.42416 2.3871,-2.49827c1.3821,-1.78846 3.32385,-0.49396 3.32385,-0.49396c5.56341,3.70894 10.55415,8.02788 16.49279,10.99719l2.13019,2.08453c0,0 0.67109,0.67109 0.77282,1.59979c0.67022,0.38443 1.34896,0.78874 2.02745,1.31645zM432.96513,116.62253c0.11159,-0.11159 0.03676,-0.22304 -0.10073,-0.34104c-0.00788,0.13433 -0.0166,0.2688 -0.02617,0.40341c0.04358,-0.00221 0.08599,-0.02145 0.1269,-0.06236z" fill="#80ff00"/></g></g></svg>