<svg version="1.1" xmlns="http://www.w3.org/2000/svg" xmlns:xlink="http://www.w3.org/1999/xlink" width="32.5749" height="32.78396" viewBox="0,0,32.5749,32.78396"><g transform="translate(-223.71255,-163.60802)"><g data-paper-data="{&quot;isPaintingLayer&quot;:true}" fill-rule="nonzero" stroke-linecap="butt" stroke-linejoin="miter" stroke-miterlimit="10" stroke-dasharray="" stroke-dashoffset="0" style="mix-blend-mode: normal"><path d="" fill="#f8ff66" stroke="none" stroke-width="0.5"/><path d="" fill="#ffffff" stroke="none" stroke-width="0.5"/><path d="" fill="#ffffff" stroke="none" stroke-width="0.5"/><path d="" fill="#ff0000" stroke="none" stroke-width="0.5"/><path d="" fill="#ff0000" stroke="none" stroke-width="0.5"/><path d="" fill="#ff0000" stroke="none" stroke-width="0.5"/><path d="" fill="#ff0000" stroke="none" stroke-width="0.5"/><path d="" fill="#ff0000" stroke="none" stroke-width="0.5"/><path d="" fill="#ff0000" stroke="none" stroke-width="0.5"/><path d="" fill="#ff0000" stroke="none" stroke-width="0.5"/><path d="" fill="#ff0000" stroke="none" stroke-width="0.5"/><path d="" fill="#ff0000" stroke="none" stroke-width="0.5"/><path d="M255.78744,180c0,8.7769 -7.06828,15.89198 -15.78745,15.89198c-8.71917,0 -15.78745,-7.11508 -15.78745,-15.89198c0,-8.7769 7.06828,-15.89198 15.78745,-15.89198c8.71917,0 15.78745,7.11508 15.78745,15.89198z" fill="#fff766" stroke="#000000" stroke-width="1"/><path d="M236.00374,182.88434c0,0.27282 -0.27282,0.27282 -0.27282,0.27282h-0.06821c-0.3712,0 -0.73174,-0.03351 -1.09333,0.06006c-0.7941,0.1983 -1.52717,0.45629 -2.29051,0.74146c-0.03934,0.0147 -1.00235,0.33138 -0.89321,0.40762c0.1314,0.09179 1.06407,0.32954 1.26874,0.41111c0.27564,0.10985 0.65681,0.30012 0.96213,0.28952c0,0 0.27282,0 0.27282,0.27282c0,0.27282 -0.27282,0.27282 -0.27282,0.27282c-0.76219,-0.01658 -3.008,-0.74981 -2.62033,-1.64226c0.30391,-0.69965 2.75552,-1.11093 3.44084,-1.28246c0.40875,-0.09937 0.8073,-0.07635 1.22567,-0.07635h0.06821c0,0 0.27282,0 0.27282,0.27282z" fill="#fff766" stroke="none" stroke-width="0.5"/><path d="M236.20022,172.8601c0.06617,0.26468 -0.19851,0.33085 -0.19851,0.33085l-0.27914,0.06971c-1.1741,0.23496 -2.34054,0.54143 -3.52927,0.62035c-2.89321,0.00079 -4.93378,-0.36337 -7.37928,-1.81208c0,0 -0.23394,-0.14037 -0.09357,-0.37431c0.14037,-0.23394 0.37431,-0.09358 0.37431,-0.09358c2.33062,1.41345 4.3071,1.73384 7.08038,1.73462c1.1538,-0.07725 2.28705,-0.37937 3.42773,-0.60735l0.26651,-0.06671c0,0 0.26468,-0.06617 0.33085,0.19851z" fill="#000000" stroke="none" stroke-width="0.5"/><path d="M248.45662,171.37193c0.12201,0.24402 -0.12201,0.36603 -0.12201,0.36603l-0.28307,0.14127c-1.17226,0.46648 -1.92586,0.96877 -3.22182,1.11386c-1.69069,0.15375 -3.4024,0.59409 -5.10799,0.40857c-0.59512,-0.06473 -1.15071,-0.41625 -1.74002,-0.40719c0,0 -0.27282,0 -0.27282,-0.27282c0,-0.27282 0.27282,-0.27282 0.27282,-0.27282c0.62886,0.007 1.18301,0.34032 1.80669,0.41128c1.65824,0.18866 3.34247,-0.2605 4.98649,-0.4099c1.2445,-0.13715 1.92232,-0.6142 3.05313,-1.06873l0.26258,-0.13155c0,0 0.24402,-0.12201 0.36603,0.12201z" fill="#000000" stroke="none" stroke-width="0.5"/><path d="M231.16112,177.22324c0,-0.52737 0.42751,-0.95488 0.95488,-0.95488c0.52737,0 0.95488,0.42751 0.95488,0.95488c0,0.52737 -0.42751,0.95488 -0.95488,0.95488c-0.52737,0 -0.95488,-0.42751 -0.95488,-0.95488z" fill="#000000" stroke="none" stroke-width="0.5"/><path d="M240.57354,176.67759c0,-0.52737 0.42751,-0.95488 0.95488,-0.95488c0.52737,0 0.95488,0.42751 0.95488,0.95488c0,0.52737 -0.42751,0.95488 -0.95488,0.95488c-0.52737,0 -0.95488,-0.42751 -0.95488,-0.95488z" fill="#000000" stroke="none" stroke-width="0.5"/><path d="M240.84386,184.63467c-0.04519,0.40673 -0.45193,0.36154 -0.45193,0.36154l-0.59232,-0.06639c-2.88263,-0.01121 -5.75774,0.06683 -8.63849,0.06889c0,0 -0.40924,0 -0.40924,-0.40924c0,-0.40924 0.40924,-0.40924 0.40924,-0.40924c2.89617,0.00223 5.78651,-0.08517 8.68581,-0.06752l0.63539,0.07002c0,0 0.40673,0.04519 0.36154,0.45193z" fill="#000000" stroke="none" stroke-width="0.5"/><path d="M247.39413,176.7458c0,-1.13007 0.9161,-2.04618 2.04618,-2.04618c1.13007,0 2.04618,0.9161 2.04618,2.04618c0,1.13007 -0.9161,2.04618 -2.04618,2.04618c-1.13007,0 -2.04618,-0.9161 -2.04618,-2.04618z" fill="#ff0000" stroke="none" stroke-width="0.5"/><path d="M245.71101,185.59982c0.24775,-0.0116 0.49042,0.02617 0.71953,0.10371c0.37975,0.1174 0.71225,0.3424 0.96188,0.63937c0.55546,0.61111 0.79884,1.50223 0.39954,2.29913c-0.06801,0.13572 -0.25147,0.29397 -0.50242,0.44609c-0.37157,0.38055 -0.89027,0.6168 -1.46415,0.6168c-0.09723,0 -0.19287,-0.00678 -0.28649,-0.01989c-0.74126,0.07692 -1.3873,-0.12667 -1.43102,-0.91362c-0.20791,-0.32028 -0.32867,-0.70237 -0.32867,-1.11266c0,-1.00489 0.72438,-1.84058 1.67945,-2.01341c0.0793,-0.02562 0.16317,-0.04134 0.25235,-0.04552z" fill="#ff0000" stroke="none" stroke-width="0.5"/><path d="M242.48331,181.31559c0,-1.13007 0.9161,-2.04618 2.04618,-2.04618c1.13007,0 2.04618,0.9161 2.04618,2.04618c0,1.13007 -0.9161,2.04618 -2.04618,2.04618c-1.13007,0 -2.04618,-0.9161 -2.04618,-2.04618z" fill="#ff0000" stroke="none" stroke-width="0.5"/><path d="M225.50003,183.22536c0,-1.13007 0.9161,-2.04618 2.04618,-2.04618c1.13007,0 2.04618,0.9161 2.04618,2.04618c0,1.13007 -0.9161,2.04618 -2.04618,2.04618c-1.13007,0 -2.04618,-0.9161 -2.04618,-2.04618z" fill="#ff0000" stroke="none" stroke-width="0.5"/><path d="M234.09398,180.49712c0,-1.13007 0.9161,-2.04618 2.04618,-2.04618c1.13007,0 2.04618,0.9161 2.04618,2.04618c0,1.13007 -0.9161,2.04618 -2.04618,2.04618c-1.13007,0 -2.04618,-0.9161 -2.04618,-2.04618z" fill="#ff0000" stroke="none" stroke-width="0.5"/><path d="M225.0908,177.35965c0,-1.13007 0.9161,-2.04618 2.04618,-2.04618c1.13007,0 2.04618,0.9161 2.04618,2.04618c0,1.13007 -0.9161,2.04618 -2.04618,2.04618c-1.13007,0 -2.04618,-0.9161 -2.04618,-2.04618z" fill="#ff0000" stroke="none" stroke-width="0.5"/><path d="M234.98066,175.5863c0,-1.13007 0.9161,-2.04618 2.04618,-2.04618c1.13007,0 2.04618,0.9161 2.04618,2.04618c0,1.13007 -0.9161,2.04618 -2.04618,2.04618c-1.13007,0 -2.04618,-0.9161 -2.04618,-2.04618z" fill="#ff0000" stroke="none" stroke-width="0.5"/><path d="M239.89148,169.9252c0,-1.13007 0.9161,-2.04618 2.04618,-2.04618c1.13007,0 2.04618,0.9161 2.04618,2.04618c0,1.13007 -0.9161,2.04618 -2.04618,2.04618c-1.13007,0 -2.04618,-0.9161 -2.04618,-2.04618z" fill="#ff0000" stroke="none" stroke-width="0.5"/><path d="M229.04674,170.26623c0,-1.13007 0.9161,-2.04618 2.04618,-2.04618c1.13007,0 2.04618,0.9161 2.04618,2.04618c0,1.13007 -0.9161,2.04618 -2.04618,2.04618c-1.13007,0 -2.04618,-0.9161 -2.04618,-2.04618z" fill="#ff0000" stroke="none" stroke-width="0.5"/><path d="M234.63963,167.94723c0,-1.13007 0.9161,-2.04618 2.04618,-2.04618c1.13007,0 2.04618,0.9161 2.04618,2.04618c0,1.13007 -0.9161,2.04618 -2.04618,2.04618c-1.13007,0 -2.04618,-0.9161 -2.04618,-2.04618z" fill="#ff0000" stroke="none" stroke-width="0.5"/><path d="M238.04992,189.84133c0,-1.13007 0.9161,-2.04618 2.04618,-2.04618c1.13007,0 2.04618,0.9161 2.04618,2.04618c0,1.13007 -0.9161,2.04618 -2.04618,2.04618c-1.13007,0 -2.04618,-0.9161 -2.04618,-2.04618z" fill="#ff0000" stroke="none" stroke-width="0.5"/><path d="M229.25136,188.13619c0,-1.13007 0.9161,-2.04618 2.04618,-2.04618c1.13007,0 2.04618,0.9161 2.04618,2.04618c0,1.13007 -0.9161,2.04618 -2.04618,2.04618c-1.13007,0 -2.04618,-0.9161 -2.04618,-2.04618z" fill="#ff0000" stroke="none" stroke-width="0.5"/><path d="M229.18315,180.63353c0,-1.13007 0.9161,-2.04618 2.04618,-2.04618c1.13007,0 2.04618,0.9161 2.04618,2.04618c0,1.13007 -0.9161,2.04618 -2.04618,2.04618c-1.13007,0 -2.04618,-0.9161 -2.04618,-2.04618z" fill="#ff0000" stroke="none" stroke-width="0.5"/><path d="M232.38883,191.27366c0,-1.13007 0.9161,-2.04618 2.04618,-2.04618c1.13007,0 2.04618,0.9161 2.04618,2.04618c0,1.13007 -0.9161,2.04618 -2.04618,2.04618c-1.13007,0 -2.04618,-0.9161 -2.04618,-2.04618z" fill="#ff0000" stroke="none" stroke-width="0.5"/><path d="M251.00905,184.40191c-0.28079,0.15795 -0.59277,0.23926 -0.90872,0.25263c-0.03786,0.00208 -0.07599,0.00314 -0.11437,0.00314c-0.16185,0 -0.31931,-0.01879 -0.47032,-0.05431c-0.91167,-0.19789 -1.71227,-0.93529 -1.71227,-1.99187c0,-0.13984 0.08035,-0.34269 0.21692,-0.57024c0.18853,-0.65101 0.69171,-1.16836 1.3341,-1.37661c0.62142,-0.395 1.28108,-0.49733 1.67007,0.18342c0.60309,0.35594 1.00767,1.01243 1.00767,1.76343c0,0.66589 -0.31807,1.25748 -0.81058,1.63114c-0.06299,0.06099 -0.13323,0.11468 -0.21251,0.15927z" fill="#ff0000" stroke="none" stroke-width="0.5"/><path d="M248.69005,187.31772c0,-1.13007 0.9161,-2.04618 2.04618,-2.04618c1.13007,0 2.04618,0.9161 2.04618,2.04618c0,1.13007 -0.9161,2.04618 -2.04618,2.04618c-1.13007,0 -2.04618,-0.9161 -2.04618,-2.04618z" fill="#ff0000" stroke="none" stroke-width="0.5"/><path d="M241.73304,192.09213c0,-1.13007 0.9161,-2.04618 2.04618,-2.04618c1.13007,0 2.04618,0.9161 2.04618,2.04618c0,1.13007 -0.9161,2.04618 -2.04618,2.04618c-1.13007,0 -2.04618,-0.9161 -2.04618,-2.04618z" fill="#ff0000" stroke="none" stroke-width="0.5"/><path d="M249.09928,172.65344c0,-1.13007 0.9161,-2.04618 2.04618,-2.04618c1.13007,0 2.04618,0.9161 2.04618,2.04618c0,1.13007 -0.9161,2.04618 -2.04618,2.04618c-1.13007,0 -2.04618,-0.9161 -2.04618,-2.04618z" fill="#ff0000" stroke="none" stroke-width="0.5"/><path d="M245.00693,168.62929c0,-1.13007 0.9161,-2.04618 2.04618,-2.04618c1.13007,0 2.04618,0.9161 2.04618,2.04618c0,1.13007 -0.9161,2.04618 -2.04618,2.04618c-1.13007,0 -2.04618,-0.9161 -2.04618,-2.04618z" fill="#ff0000" stroke="none" stroke-width="0.5"/></g></g></svg>