<svg version="1.1" xmlns="http://www.w3.org/2000/svg" xmlns:xlink="http://www.w3.org/1999/xlink" width="360.39302" height="342.76267" viewBox="0,0,360.39302,342.76267"><g transform="translate(-127.4636,-30.50905)"><g data-paper-data="{&quot;isPaintingLayer&quot;:true}" fill-rule="nonzero" stroke="none" stroke-width="0.5" stroke-linecap="butt" stroke-linejoin="miter" stroke-miterlimit="10" stroke-dasharray="" stroke-dashoffset="0" style="mix-blend-mode: normal"><path d="" fill="#ff0000"/><path d="" fill="#ff0000"/><path d="" fill="#ff0000"/><path d="M442.26706,122.75919c-0.27796,-0.07588 -0.32268,0.61841 -0.49791,0.91381c-0.23058,0.38869 -0.46556,0.77275 -0.70167,1.1556c-2.93383,8.14132 -8.45721,15.29446 -14.53201,18.74275c-3.13111,1.77735 -6.49537,2.88641 -9.73452,4.35435c-0.47096,-1.50699 -1.33172,-3.24784 -2.90492,-4.57727c3.59313,-1.79641 7.40668,-2.95685 10.93936,-4.90063c4.52878,-2.49185 9.06386,-7.93239 11.72329,-14.06743c-0.01424,-1.0869 0.52854,-1.94866 0.52854,-1.94866l0.00001,-0.00002c1.31849,-2.04871 2.98409,-5.48121 5.51286,-5.25066c1.87314,0.17079 3.62348,3.53294 4.69905,5.294l0.67669,1.11912c0,0 0.2699,0.44636 0.41321,1.09697c1.13233,1.79952 2.39415,3.79937 3.45891,4.55421c0.51001,0.36157 1.14995,-0.1923 1.72835,-0.21297c1.40926,-0.05037 2.81955,0 4.22933,0c4.63783,0 9.54337,0.58937 14.12403,-0.6457c1.4226,-0.38357 2.76173,-1.23348 4.19171,-1.5655c2.08278,-0.48358 5.58962,-0.48366 7.0234,-3.3174c0.69441,-1.37242 0.45674,-6.14942 0.45976,-7.34129c0.02285,-9.0097 -4.79153,-17.45179 -8.34623,-24.86219c-2.07469,-6.8327 -4.70812,-14.5425 -8.12321,-20.41905c-0.71899,-1.2372 -1.7525,-2.10486 -2.50616,-3.30539c-2.1747,-3.46407 -3.30591,-7.66382 -5.15534,-11.32907c-0.32929,-0.6526 -0.86574,-1.08779 -1.29873,-1.62803c-0.23275,-1.08945 -0.6668,-2.21385 -1.41632,-3.25904c-1.77392,-5.31816 -2.57956,-11.29653 -6.70127,-14.41476c-1.69323,-1.28099 -3.00436,-0.81208 -4.93963,-0.79956c-5.1564,0.03337 -9.83006,1.24601 -14.95926,2.21596c-6.02889,0.88688 -12.35592,1.89023 -17.94629,5.33338c-0.92163,0.56764 -1.58889,1.75493 -2.5376,2.23824c-0.49117,0.25022 -1.15809,-0.56754 -1.57526,-0.14297c-0.28564,0.2907 0.6259,0.5079 0.85409,0.87693c0.54049,0.87409 0.8879,1.9377 1.42746,2.81281c1.4156,2.29592 2.80482,4.70292 3.7018,7.41782c1.33347,4.03604 2.64165,8.11013 4.14716,12.07848c0.84819,2.23572 1.97117,4.28477 3.1473,6.24346c0.57007,0.94938 1.48645,1.5492 1.89655,2.63355c0.60452,1.59841 0.70481,3.45093 1.05721,5.17639c0,0 0.25067,1.32659 -0.29946,2.35678c0.216,0.39981 0.3626,0.9425 0.3626,1.67915c0,2.7978 -2.11466,2.7978 -2.11466,2.7978l0.08388,-0.28492c-3.43262,2.22281 -6.7875,4.39924 -10.4889,5.76894c-0.90196,0.33377 -1.98311,0.02106 -2.75655,0.71986c-0.7443,0.67248 -0.77622,2.20695 -1.41458,3.04874c-0.8449,1.11413 -1.95415,1.80225 -3.01493,2.56772c-0.32514,0.91525 -1.01411,1.55945 -1.82034,1.60637c-0.08213,0.09734 -0.16219,0.19799 -0.23993,0.30239c-0.71352,0.95806 -0.97238,2.40696 -1.69173,3.35736c-0.68919,0.91055 -1.82446,1.12109 -2.44757,2.11149c-0.76324,1.21314 -0.89631,2.95054 -1.56154,4.26079c-1.74619,3.43934 -5.05664,5.51017 -6.76693,8.95296c-0.65264,1.31378 -1.04857,2.82167 -1.57285,4.23251c-0.52825,1.04386 -1.25474,1.95366 -1.58475,3.13157c-0.49121,1.75329 -0.32983,3.75306 -0.83354,5.50013c-0.77072,2.67315 -2.67804,4.65765 -3.27907,7.40597c-0.69173,3.16311 0.40857,7.75617 0.02927,10.99655c-0.30345,2.5923 -1.97887,4.58661 -2.60103,7.07731c-0.28607,1.14523 0.27227,2.49948 -0.07023,3.61728c-0.34037,1.11082 -1.38384,1.60799 -1.84658,2.63846c-0.45541,1.01417 -0.3468,2.3798 -0.84587,3.35736c-1.24548,2.43966 -2.94748,4.45329 -4.68749,6.28837c-3.39767,3.5833 -7.33256,5.09055 -11.28229,6.8985c-0.34382,0.92944 -1.06566,1.56949 -1.9005,1.56949c-0.15801,0 -0.31196,-0.02293 -0.46007,-0.06641c-0.09736,0.84735 -0.47423,2.06126 -1.81523,2.28304c-2.09833,0.34703 -2.36063,-2.42917 -2.36063,-2.42917l-0.11798,-1.24875c-0.53002,-5.6099 -1.05995,-11.21979 -1.586,-16.83034c-0.0284,-24.53568 0.20833,-49.39008 -2.25107,-73.76417c-0.52661,-5.21905 -1.06529,-10.43089 -1.50236,-15.66453c-0.14963,-1.79171 -0.39444,-3.57417 -0.44664,-5.37546c-0.02447,-0.84445 0.70319,-1.9694 0.21786,-2.51879c-0.40531,-0.45879 -0.66095,1.27284 -1.18127,1.42822c-1.21032,0.36144 -2.48147,0.02408 -3.7222,0.03613c-3.95638,-0.065 -3.87274,1.43055 -7.47723,4.15692c-0.74796,0.56574 -1.70357,0.50819 -2.45727,1.06046c-3.33309,2.44233 -5.57036,6.77867 -7.88506,10.5454c-2.34899,3.82253 -5.9279,6.23621 -8.75334,9.34284c-2.98772,3.28506 -5.83401,7.60493 -8.07304,11.7626c-1.05009,1.94991 -2.49943,3.6445 -3.08582,5.90955c-0.69853,2.69821 0.09074,7.45168 0.09074,10.38044c-0.01988,2.11744 0.59057,4.16385 0.81775,6.26002c0.53894,4.97262 -0.07483,12.44524 2.24988,16.88972c0.68073,1.30144 1.87681,2.03807 2.5376,3.35736c0.53035,1.05886 0.51632,2.46353 0.94666,3.59903c0.46586,1.22923 1.31338,2.17503 1.72102,3.43996c1.38148,4.28688 2.00182,9.16907 3.40824,13.50538c2.01093,6.20014 5.31231,12.86539 6.05472,19.64755c0.28673,2.61939 -0.27866,5.32142 0.01146,7.94016c0.30162,2.72251 0.84993,5.42413 0.86171,8.17569c0,2.98432 0.03291,5.96896 0,8.95296c-0.01561,1.41469 0.28996,2.92915 -0.10852,4.2421c-0.52532,1.73086 -1.94583,2.78355 -2.5376,4.47648c-0.61674,1.76437 0.10852,3.88607 0.10852,5.82998c0,4.84952 0,9.69904 0,14.54856c0,6.9944 0.00712,13.8019 -0.87317,20.59232c-0.30145,2.32535 -1.47768,4.37247 -1.69173,6.71472c-0.43897,4.80329 0.33577,8.73933 -0.84587,13.42944c0.03559,3.79162 -0.22622,7.3869 -1.12018,10.83007c-2.25691,2.82408 -5.25681,4.915 -6.68694,8.55493c-0.40745,1.03704 -0.75143,2.10708 -1.04946,3.20099c-0.51177,0.76947 -1.03822,1.50516 -1.72605,1.93308c-2.59825,1.61645 -6.25829,-0.37947 -8.76077,-0.94228c-0.9242,-0.20785 -1.92457,0.31718 -2.81166,-0.08392c-1.42319,-0.64351 -3.94193,-3.64539 -5.39148,-4.64092c-0.98995,-0.67989 -2.31512,-0.6106 -3.10381,-1.65408c-0.78869,-1.04348 -0.73633,-2.79674 -1.25021,-4.10649c-1.39453,-3.55431 -3.71519,-6.48551 -5.07519,-10.07208c-0.3692,-0.97365 -0.32035,-2.18252 -0.74507,-3.11569c-0.4114,-0.90389 -1.28143,-1.33349 -1.69173,-2.23824c-0.19545,-0.43098 -0.32672,-0.90101 -0.43483,-1.38515c-0.82878,-0.67938 -1.31103,-2.1075 -2.01384,-3.05908l-0.47801,-1.99549c0,0 0,-2.7978 2.11466,-2.7978l-0.00002,-0.00002c1.94698,0 2.10137,2.37169 2.11361,2.74782c0.03237,0.0366 0.06822,0.06867 0.10815,0.09544c0.84931,0.56917 1.61933,-1.32525 2.4295,-1.98678c0.45002,-0.36745 4.11183,-3.14181 4.39798,-3.42893c1.05122,-1.0548 3.92611,-5.10203 4.74632,-6.09143c3.66375,-4.41947 7.62358,-8.78093 10.5469,-14.13305c0,0 0.04635,-0.08433 0.13347,-0.20858c0.0146,-0.04451 0.02368,-0.06852 0.02368,-0.06852l0.53703,-1.41817c2.10518,-5.16579 4.40019,-10.9507 3.52562,-17.0558c-0.27109,-1.89241 -1.48451,-3.3247 -2.06903,-5.08873c-0.84968,-2.56424 -1.73035,-5.11061 -2.56218,-7.68507c-0.70562,-2.18388 -0.98012,-4.59942 -1.78468,-6.72258c-0.74844,-1.97506 -1.93423,-3.61954 -2.70138,-5.58198c-1.98285,-5.07234 -3.00808,-9.52509 -3.44453,-15.08853c-0.18019,-2.29689 -1.27594,-4.34403 -1.51445,-6.6316c-0.16285,-1.56187 0.09881,-3.1506 0.14821,-4.72591c0.0108,-3.84039 0.03421,-7.35378 -1.40488,-10.82812c-1.31508,-3.17498 -4.38036,-4.61375 -6.55708,-6.41322c-4.87063,-4.02652 -9.63906,-5.78472 -15.16826,-7.73594c-4.43444,-1.56489 -8.21173,-2.52893 -12.74343,-1.30281c0,0 -0.51248,0.1356 -1.07886,-0.06509c-0.711,0.09793 -1.42366,0.16001 -2.13856,0.16412c-4.45288,0 -9.47866,0.8235 -13.87259,-0.03613c-2.77243,-0.54239 -6.76206,-3.01368 -9.33569,-4.24148c-3.17384,-1.51414 -4.22424,-2.85259 -7.5362,-3.58328c-0.90465,-0.19958 -1.83429,-0.00539 -2.75142,-0.00909c-0.38694,-0.00156 -0.98773,-0.46451 -1.16082,-0.00665c-0.23946,0.63342 0.43319,1.35814 0.38331,2.0633c-0.10831,1.53139 -0.6988,2.95075 -0.84587,4.47648c-0.43697,4.53332 0.01584,9.62398 0.01584,14.20671c0,0 0,0.19821 -0.03987,0.48911c0.02582,0.19242 0.03987,0.40192 0.03987,0.63001c0,2.7978 -2.11466,2.7978 -2.11466,2.7978c-7.61279,0 -17.76318,0 -25.37597,0c-3.73257,0 -7.89937,-0.73546 -11.58374,-0.02096c-7.82841,1.51815 -15.55949,2.93086 -23.35139,5.50498c-1.68446,0.72455 -3.14864,2.14832 -4.73735,3.18444c-2.51069,1.63742 -6.29737,2.98876 -9.049,3.60573c-2.01007,0.45069 -2.56552,-0.66573 -4.30218,0.7374c-2.83916,2.29388 -1.77435,4.86951 -2.43712,8.33494c-1.00776,5.26931 -3.60006,9.77125 -4.1886,15.36673c-1.01847,9.68297 -0.79013,19.51256 -0.85733,29.42624c1.48656,5.90035 1.58861,12.4547 3.2498,18.40253c0.68975,2.46964 2.52119,4.15026 3.3294,6.55617c0.23836,0.70956 -0.25112,1.79392 0.1827,2.31688c0.33534,0.40425 0.84926,-0.47489 1.30113,-0.5281c2.88995,-0.34035 3.00219,0.05355 5.74391,1.26269c3.36126,1.48236 6.79881,0.97555 10.32754,0.97555c6.48497,0 12.96994,0 19.45491,0c5.91747,0 11.84716,-0.1496 17.76318,0c3.28134,0.08297 5.35211,-0.90633 7.02889,3.96537c1.73326,5.03582 -1.82753,11.66392 -3.43752,15.72933c-0.70126,1.77073 -0.40272,3.96336 -0.65814,5.93366c-0.51739,3.99107 -1.9004,8.14548 -2.9879,12.07144c-0.72359,-2.25024 -1.5548,-4.59645 -2.04896,-6.55787l-0.43297,-0.82983c0.55116,-1.86944 1.07542,-3.77641 1.2951,-5.58004c0.3054,-2.50749 0.20143,-5.20699 1.03359,-7.49578c1.06813,-2.93779 3.92792,-7.42141 3.3294,-11.12955c-0.21895,-1.35654 -2.07335,-0.54393 -3.1215,-0.51111c-5.91335,0.1851 -11.84763,0 -17.76318,0c-6.48497,0 -12.96994,0 -19.45491,0c-2.79763,0 -6.0511,0.4901 -8.79739,-0.03613c-1.76483,-0.33816 -3.3164,-1.84886 -5.07519,-2.23824c-1.71423,-0.37952 -4.48935,0.89131 -5.97293,-0.49198c-0.99465,-0.92741 -0.92687,-2.9841 -1.50903,-4.39784c-0.5674,-1.37787 -3.08605,-5.66059 -3.43752,-6.87327c-1.83019,-6.31467 -1.93353,-13.36202 -3.51713,-19.64755c-0.05767,-10.40099 -0.28801,-20.85243 0.8344,-31.00624c0.4174,-3.77599 1.52566,-8.38604 2.68272,-11.92003c0.45674,-1.39504 1.31201,-2.5726 1.58733,-4.04861c0.28037,-1.50312 -0.31443,-3.16651 0.03416,-4.64444c0.4162,-1.76459 2.92175,-6.08444 4.29564,-7.1648c1.70701,-1.34228 3.88851,-1.07675 5.84821,-1.50084c4.88288,-1.0567 8.7498,-4.60309 13.28135,-6.63927c7.99449,-2.64726 15.96983,-4.20152 24.0171,-5.68621c3.87695,-0.71529 8.18178,-0.02096 12.1005,-0.02096c7.61279,0 15.22558,0 22.83838,0h0.42313c0.00342,-6.02007 0.0576,-11.71836 0.86151,-17.68821c0.20677,-1.53548 -0.36661,-3.44804 0.38331,-4.65142c1.56203,-2.50653 5.86223,-2.65832 7.92987,-2.25397c4.11955,0.80563 8.5335,3.64681 12.45126,5.47395c1.01481,0.47328 3.3333,2.15641 4.51148,2.36896c4.19424,0.75668 8.95041,-0.03613 13.19512,-0.03613c1.57846,0.01059 3.37752,-0.55123 5.17379,-0.98126c-0.05534,0.16412 -0.10516,0.33221 -0.14915,0.50386c5.00295,-0.55259 9.50637,1.03821 14.5476,2.75986c5.0902,1.73837 9.31921,3.80306 13.77633,7.48964c2.87741,2.37997 6.22418,4.24138 7.99182,8.35917c1.88582,4.39308 1.9668,8.90518 1.97858,13.79252c-0.21143,4.20281 0.98049,6.52253 1.34054,10.57724c0.4351,4.89981 1.21943,8.57935 2.98405,13.11329c0.76803,1.97333 1.96327,3.62305 2.71216,5.60922c1.76042,4.66891 2.87049,9.90214 4.45014,14.68947c0.44227,1.34035 2.11979,4.76296 2.32947,6.10247c1.17583,7.51175 -1.31503,14.5906 -3.918,20.99428l-0.47801,1.26772c0,0 -0.10942,0.28953 -0.32826,0.62239c-0.09946,0.27638 -0.1913,0.44346 -0.1913,0.44346v-0.00003c-3.12354,5.65104 -7.22177,10.27681 -11.10727,14.96407c-2.64503,3.19081 -4.69313,6.18234 -7.79687,8.62834c-1.09998,0.86687 -2.41172,2.17705 -3.80309,3.11754c0.38152,0.40933 0.79825,0.78226 1.04574,1.32984c0.49275,1.09019 0.51849,2.4621 0.94666,3.59903c0.86502,2.29693 2.17214,4.25258 3.24334,6.392c0.61311,1.22452 1.35282,2.35503 1.83186,3.68008c0.29057,0.80374 -0.03465,1.97823 0.44153,2.60823c0.47617,0.63 1.36389,0.19972 1.97138,0.58416c1.00151,0.63379 1.86556,1.59368 2.78152,2.42363c0.6707,0.60772 1.20352,1.55912 1.97739,1.8884c0.71856,0.30574 1.51856,-0.24455 2.26354,-0.08392c1.58136,0.34096 3.13517,1.01089 4.73646,1.08299c0.57828,0.02604 1.22161,0.58249 1.72835,0.21297c0.87335,-0.63685 1.25038,-2.07549 2.00617,-2.93619c0.44877,-0.51106 3.22547,-2.50705 3.77117,-3.78371c1.93975,-4.5381 2.21273,-8.46038 2.24908,-13.52583c1.19928,-4.76009 0.36401,-8.46249 0.84587,-13.42944c0.22702,-2.34011 1.40804,-4.38545 1.69173,-6.71472c0.27285,-2.24021 0.5538,-4.47875 0.84587,-6.71472c0.38565,-2.95234 -0.0273,-6.62361 -0.0273,-9.62392c0,-7.08363 -0.10113,-14.18098 0,-21.26328c0.0202,-1.41459 -0.28996,-2.92915 0.10852,-4.2421c0.52532,-1.73086 1.94583,-2.78355 2.5376,-4.47648c0.26193,-0.74934 -0.09742,-1.64715 -0.10852,-2.47262c-0.04014,-2.98384 0,-5.96864 0,-8.95296c0.01326,-2.52395 -0.56654,-4.99217 -0.83002,-7.49199c-0.26889,-2.55116 0.28212,-5.17669 0.01146,-7.72752c-0.66741,-6.29 -3.9253,-12.64696 -5.7874,-18.40253c-1.38636,-4.2851 -1.99236,-9.13065 -3.35869,-13.3535c-0.39113,-1.20885 -1.21908,-2.0979 -1.66245,-3.27476c-0.36728,-0.97491 -0.28634,-2.21112 -0.74507,-3.11569c-0.6665,-1.31426 -1.88847,-2.02797 -2.5376,-3.35736c-2.61238,-5.35012 -2.18239,-13.01073 -2.82531,-18.92211c-0.26059,-2.39601 -0.85661,-4.74884 -0.87398,-7.16942c0,-3.4981 -0.72812,-8.69488 0.09074,-12.00196c0.38019,-1.53547 1.29228,-2.74236 1.95615,-4.09854c2.9114,-5.94751 6.43069,-11.70476 10.56922,-16.27939c2.5566,-2.82601 6.08556,-5.06019 8.16398,-8.56308c2.57243,-4.33548 5.31064,-9.01354 9.03226,-11.837c0.79958,-0.60662 1.81757,-0.57297 2.61793,-1.17778c1.22416,-0.92508 2.14721,-2.46086 3.38346,-3.35736c2.45901,-1.78323 3.4623,-1.40611 6.05663,-1.43868c1.01491,0.01204 2.03337,0.14893 3.04473,0.03613c1.30927,-0.14602 2.83394,-1.83724 3.89393,-0.81002c1.40497,1.36154 1.47081,4.20435 1.90959,6.43417c1.30597,6.63676 1.29272,14.47614 1.97859,21.29023c2.46525,24.49213 2.31165,49.49804 2.28,74.15601c0.39625,4.16028 0.79006,8.32097 1.18333,12.48175c3.95283,-1.84341 8.09509,-3.08502 11.43687,-6.63771c1.37382,-1.46052 2.80399,-2.9536 3.77117,-4.90283c0.48931,-0.98615 0.38333,-2.34884 0.84587,-3.35736c0.35823,-0.7811 1.2842,-0.98772 1.53688,-1.83802c0.28567,-0.96131 -0.31893,-2.1183 -0.07023,-3.09744c0.57351,-2.2579 2.24845,-3.98892 2.47417,-6.35212c0.33746,-3.5331 -0.70884,-7.93757 0.02927,-11.38585c0.64964,-3.03501 2.65565,-5.30575 3.48786,-8.26171c0.49086,-1.74351 0.32693,-3.73399 0.82534,-5.47374c0.40248,-1.4049 1.22105,-2.53365 1.83157,-3.80048c0.60353,-1.57348 1.06478,-3.25765 1.81061,-4.72045c1.75222,-3.43667 5.04802,-5.51456 6.76693,-8.95296c0.73318,-1.4666 0.97058,-3.34192 1.82192,-4.69217c0.67858,-1.07625 1.87906,-1.37328 2.62762,-2.36499c0.71837,-0.9517 0.96828,-2.41242 1.69173,-3.35736c1.4469,-1.88989 3.63994,-2.57112 5.07519,-4.47648c0.79983,-1.0618 1.02121,-2.8443 1.96888,-3.66598c1.16296,-1.00836 2.68189,-0.9753 4.01038,-1.51838c3.37674,-1.38039 6.45172,-3.25055 9.61128,-5.29246c-0.05326,-0.17898 -0.07532,-0.29571 -0.07532,-0.29571l0.00003,0.00004c-0.87737,-5.22196 -3.89478,-7.9899 -5.74106,-12.8055c-1.15339,-3.00835 -2.29245,-6.02637 -3.42073,-9.05135c-0.8948,-2.399 -1.21354,-5.18429 -2.34431,-7.40206c-1.55978,-3.05918 -5.94179,-7.09642 -4.40524,-11.84008c0.51676,-1.59532 2.3643,-1.51231 3.49993,-2.38121c6.7947,-5.19879 14.07053,-6.95919 21.8094,-8.09606c5.29182,-0.99968 10.14465,-2.29138 15.49191,-2.26052c2.78398,0.01607 4.39641,-0.45516 6.90249,1.43868c5.92482,4.47738 6.14435,11.81704 9.25432,18.86769c0.38393,0.87042 1.20801,1.27992 1.63014,2.1188c1.79437,3.56584 2.87921,7.70569 4.99505,11.05332c0.77806,1.23104 1.8346,2.13224 2.56903,3.40933c3.5537,6.17952 6.39348,14.13484 8.55211,21.30708c4.03256,8.3069 8.7919,17.29335 8.81308,27.41776c0.00699,3.33896 0.27511,7.56719 -1.23197,10.56463c-0.8128,1.61658 -6.01689,5.14384 -7.16377,5.58777c-0.87351,0.33811 -1.83385,-0.16134 -2.73014,0.0478c-1.34694,0.31429 -2.60032,1.15409 -3.94149,1.50895c-4.87937,1.29106 -10.02061,0.75632 -14.96086,0.75632c-2.52596,0 -5.29938,1.23437 -7.57617,-0.21297c-2.14292,-1.36224 -4.96554,-6.26899 -6.74718,-8.6449c-0.33084,-0.65658 -0.66029,-1.31811 -0.99316,-1.97602c0.038,0.01219 0.07587,0.02452 0.11361,0.037h0.56821c-0.2157,-0.53004 -0.48129,-0.95649 -0.90391,-1.07185zM280.95592,275.48447c0.11561,0.43911 0.15942,0.97165 0.38962,1.26165z" fill="#ff0000"/><path d="M416.85302,186.74159c2.97597,3.141 5.89163,5.53741 8.61327,9.13827c0,0 1.4953,1.97835 0,3.95668c-1.14265,1.51177 -2.28528,0.71307 -2.76069,0.25226c-0.319,0.29817 -0.60348,0.42363 -0.60348,0.42363l-2.54494,1.12233c-4.6494,1.99235 -9.75672,2.17987 -14.31308,4.4458c-1.22113,0.60729 -2.27547,1.73616 -3.51303,2.28214c-1.33738,0.59002 -2.80976,0.50755 -4.1472,1.09739c-1.22181,0.53883 -2.24379,1.72114 -3.4656,2.25997c-1.33743,0.58983 -2.80976,0.50755 -4.1472,1.09739c-1.22181,0.53883 -2.2413,1.7311 -3.4656,2.25997c-3.45485,1.49245 -6.85018,1.15107 -10.29206,2.29472c-3.68534,1.22455 -7.46216,1.92631 -11.09885,3.44978c-0.73472,0.30778 -1.41869,0.85915 -2.12859,1.26602c-0.11757,1.67966 -0.16662,3.38015 -0.55529,4.97748c-0.2777,1.14129 -1.2793,1.80215 -1.56744,2.9389c-0.23999,0.94682 0.19266,2.01086 0.06343,2.99476c-0.20392,1.55253 -0.80569,3.55803 -1.45781,5.38813c2.39679,0.88058 4.6194,2.35156 7.09486,3.71932h-0.00002c8.66354,4.78685 15.75069,12.02178 19.51848,23.58262c0.66948,2.05417 2.61108,7.95155 2.61317,9.0194c0.00408,2.08638 -1.15587,3.88267 -1.70787,5.83705c-0.35885,1.27053 -0.46265,2.70208 -1.02442,3.83666c-0.65551,1.3239 -1.8711,2.0431 -2.5376,3.35736c-0.45873,0.90456 -0.37485,2.14272 -0.74507,3.11569c-0.76296,2.00514 -3.69541,6.96606 -4.53143,8.43775c-3.02553,4.00511 -5.55137,8.39816 -8.54849,12.43898c-2.43026,3.27655 -5.26671,6.35704 -7.48513,9.88406c-0.68199,1.08427 -1.03796,2.50754 -1.79088,3.50628c-0.99558,1.3206 -2.38233,2.04414 -3.38346,3.35736c-2.85479,3.74472 -4.59352,8.8558 -7.73868,12.47235c-2.73775,3.14807 -5.70939,7.47705 -8.63251,10.25706c-1.02387,0.97374 -2.36619,1.25247 -3.38346,2.23824c-2.28555,2.21475 -3.97213,5.41494 -6.30786,7.53605c-3.28621,2.98426 -6.67208,5.057 -9.88831,8.24188c-5.42937,3.57022 -11.6863,5.41331 -17.71756,2.85453c-2.69665,-1.14407 -5.09751,-3.3013 -7.76339,-4.56532c-4.798,-2.27492 -10.21429,-4.10175 -14.18956,-8.5776c-1.0873,-1.22422 -2.20094,-2.48095 -2.99576,-4.05013c-0.99273,-1.95991 -0.7792,-4.68772 -1.69173,-6.71472c-0.55128,-1.22454 -1.44143,-2.09319 -2.27993,-3.01855c-1.85445,0.14452 -2.39518,-0.64071 -4.83598,-0.16717c-6.18595,1.2001 -12.26573,3.95531 -18.27907,6.60727c0,0 -2.00615,0.88474 -2.67486,-1.76949c-0.03242,-0.12869 -0.05855,-0.25321 -0.07894,-0.37367c-0.85799,-0.20535 -1.62315,-0.90583 -2.48298,-1.10675c-0.98839,-0.23098 -2.08406,0.34157 -3.00811,-0.17684c-0.98379,-0.55193 -1.60931,-1.86234 -2.37778,-2.84472c-3.36373,-4.30012 -3.15697,-8.50546 -3.15697,-14.28867c0,-6.24301 -0.6442,-13.29238 0.0273,-19.4732c0.30295,-2.78842 1.4075,-5.33143 1.8676,-8.08195c1.07387,-6.41976 2.29695,-12.77286 3.29476,-19.23675c0.43143,-1.15143 2.22415,-5.43835 2.45044,-7.374c0.12929,-1.10597 -0.14299,-2.25434 0,-3.35736c0.03226,-0.24884 1.77817,-7.22884 1.87945,-7.49578c0.40659,-1.07152 1.2793,-1.80215 1.56744,-2.9389c0.23999,-0.94682 -0.18711,-2.00961 -0.06343,-2.99476c0.92297,-7.35136 2.91347,-16.41239 5.26292,-23.16345c0.42517,-1.22173 1.23353,-2.15671 1.69173,-3.35736c1.30553,-3.42091 1.38154,-7.62687 2.50334,-11.09385c0.36712,-1.13462 1.28721,-1.87429 1.6017,-3.03626c0.46343,-1.71235 -0.07666,-3.63707 -0.06343,-5.4558c0.00372,-0.51192 0.35351,-1.31332 0.00502,-1.53582c-0.50479,-0.32231 -1.09324,0.32799 -1.63986,0.49198c-3.88824,-1.66314 -7.47355,-4.00975 -11.32624,-5.70305c-2.47214,-1.08653 -5.81938,-1.89334 -8.05582,-3.63163c-0.68761,-0.53446 -1.00854,-1.69394 -1.69173,-2.23824c-0.57361,-0.45699 -1.28502,-0.49959 -1.92656,-0.7623c-0.48876,1.24618 -1.44317,2.30943 -2.30581,2.59476h-0.00001c-6.94287,2.29643 -14.3153,5.12085 -20.76037,9.75095c-5.29487,3.8038 -12.41562,0.2436 -18.00794,1.84922c-6.59827,1.89444 -13.69081,4.10788 -20.61662,4.75109c0.05847,-0.53113 0.08874,-1.07438 0.08874,-1.62697c0,-1.35278 -0.18142,-2.64951 -0.51382,-3.8499c4.82482,-1.34937 10.01787,-1.12712 14.73981,-2.58999c2.69266,-0.83419 5.16997,-2.17889 7.97915,-2.58316c3.57267,-0.51415 7.1882,0.06742 10.78123,-0.02812c3.81782,-0.10152 7.64101,-3.56483 10.91259,-5.52873c1.19036,-0.71457 2.49508,-1.35793 3.79241,-1.63647c2.29492,-0.49273 5.22317,-1.20746 7.31753,-2.56268c0.59616,-0.38577 1.69977,-1.283 2.68318,-1.93575c-0.02747,-0.02605 -0.05497,-0.05201 -0.08253,-0.07786c1.18469,-0.46177 2.31533,-0.97652 3.27975,-1.35584c0.42276,-0.16627 1.12291,-0.35265 1.89548,-0.59037c0.0816,0.05826 0.16393,0.11488 0.24705,0.16967c0.85933,0.56649 1.89626,0.60054 2.72026,1.25247c0.68444,0.54152 1.01256,1.68522 1.69173,2.23824c1.88718,1.53667 5.06054,2.14989 7.16976,3.08309c3.63482,1.60819 7.032,3.82269 10.66627,5.48815c1.14511,0.164 2.5513,-0.48486 3.43533,0.49198c1.97198,2.179 2.3689,10.07018 1.63332,13.15254c-0.33141,1.38876 -1.34775,2.34011 -1.78177,3.67846c-1.15144,3.55065 -1.24818,7.75463 -2.57185,11.28855c-1.62662,4.34271 -3.04219,8.21209 -4.09863,12.98245c-0.83612,3.7755 -1.99316,8.11979 -2.48057,11.97625c-0.15462,1.22332 0.23174,2.54274 -0.06343,3.71995c-0.85058,3.39233 -2.86079,5.93893 -3.32003,9.70948c-0.13457,1.10486 0.14713,2.2553 0,3.35736c-0.40149,3.00742 -1.60689,5.62483 -2.62476,8.29367c-0.92591,6.27299 -2.12262,12.44373 -3.17103,18.66106c-0.44453,2.63613 -1.53047,5.06379 -1.817,7.738c-0.51218,4.78005 0.0273,10.38704 0.0273,15.21952c0,5.13683 -0.84578,9.80688 1.91823,13.68933c0.36371,0.51088 0.50624,1.39527 1.00568,1.63176c0.65009,0.3078 1.38473,-0.31648 2.06708,-0.17684c0.88115,0.18031 1.659,0.91823 2.5376,1.11912c1.03401,0.23643 2.14364,0.27426 3.27056,0.23606c-0.13765,0.37864 -0.27219,0.76068 -0.40392,1.14558c5.50806,-2.42971 11.10237,-4.81461 16.75668,-5.85811c1.35839,-0.25069 2.74814,0.05515 4.12294,0.12047c0.09191,-0.77448 0.47651,-2.39479 2.0858,-2.39479l-0.00003,0.00002c1.09447,0 1.62249,0.74945 1.87722,1.47257c0.83284,-0.40676 1.65687,-0.89069 2.48636,-1.33595c-0.09176,0.43017 -0.16827,0.86688 -0.22693,1.3113c-0.22148,1.67811 -0.37834,3.16675 -0.47052,4.48736c0.76262,1.02075 1.44597,1.95233 1.51616,2.10636c1.82794,4.01104 0.82043,6.21847 3.77117,9.37931c3.68867,3.95133 8.56656,5.55712 12.9378,7.63867c2.62679,1.25085 5.00188,3.34001 7.64901,4.51339c4.70128,2.0839 9.96002,0.51604 14.17886,-2.29628c3.15098,-3.13324 6.49613,-5.18657 9.72298,-8.09955c2.31208,-2.08718 3.97018,-5.26152 6.22375,-7.45787c1.01523,-0.98945 2.35501,-1.273 3.38346,-2.23824c2.82445,-2.65086 5.64497,-6.86138 8.28481,-9.8871c3.06865,-3.51721 4.71295,-8.44911 7.4869,-12.14829c0.99291,-1.3241 2.38526,-2.04025 3.38346,-3.35736c0.68475,-0.90351 0.97297,-2.22606 1.59258,-3.20844c2.30535,-3.65508 5.2164,-6.86411 7.74045,-10.2601c2.93704,-3.95162 5.40399,-8.2612 8.36883,-12.18165c0.29061,-0.51386 3.45093,-5.96054 3.92723,-7.22993c0.42691,-1.13776 0.41631,-2.54018 0.94666,-3.59903c1.36403,-2.7233 4.62697,-6.25476 4.63851,-10.15176c0.00729,-2.46373 -1.54205,-4.48584 -2.27147,-6.75271c-3.28005,-10.19372 -9.63357,-16.42869 -17.25778,-20.62167c-2.71715,-1.4943 -5.23942,-3.49877 -8.0865,-3.98291c-0.72551,0.62194 -1.41678,1.28455 -2.08499,1.98008c0.33843,-0.52026 0.66055,-1.05675 0.95074,-1.62498c0,0 0.08348,-0.16567 0.19666,-0.45635c-0.16809,-0.00752 -0.33744,-0.00929 -0.50815,-0.00492c0,0 -2.11466,0 -2.11466,-2.7978c0,-2.7978 2.11466,-2.7978 2.11466,-2.7978c0.21449,0.00395 0.42644,0.01393 0.63608,0.02962c-0.15479,-0.36253 -0.35312,-0.72198 -0.60343,-1.07196c0.57642,-1.55087 1.18765,-3.38604 1.31453,-4.44191c0.32352,-2.69231 0.02686,-5.27086 1.48896,-6.93972c-0.87648,-0.34149 -1.51627,-1.414 -1.51627,-2.68421c0,-0.7726 0.23669,-1.47205 0.61937,-1.97835l1.69173,-2.23824l0.02723,0.03602c0.0957,-0.13724 0.19676,-0.26867 0.30396,-0.3934c1.41031,-1.64095 6.87037,-3.23318 8.66248,-3.84241c3.20489,-1.08949 6.6878,-2.6748 9.93001,-3.29911c1.15778,-0.22294 2.34613,0.13769 3.50989,-0.02167c2.50146,-0.34252 4.75481,-2.16995 7.14059,-3.22211c1.33743,-0.58983 2.80976,-0.50755 4.1472,-1.09739c1.22181,-0.53883 2.24379,-1.72114 3.4656,-2.25997c7.19209,-3.17182 14.76924,-4.71186 22.01171,-7.84234l0.8379,-0.36953c-1.59497,-1.61912 -3.23334,-3.11158 -4.90066,-4.88144c-0.55002,-0.58384 -0.85692,-1.54461 -1.46281,-2.02195c-0.02796,-0.02203 -0.056,-0.04393 -0.08409,-0.0657c1.09235,-1.19403 2.0698,-2.58146 2.91213,-4.05391c0.44779,0.58564 0.82358,1.2944 1.31612,1.81424z" fill="#ff0000"/><path d="M189.86502,343.48c0.13175,0 0.26068,0.01594 0.38576,0.04644c0.12508,-0.0305 0.25401,-0.04644 0.38576,-0.04644c0.42401,0 0.81887,0.16511 1.14987,0.44938c0.12049,-0.39759 0.24001,-0.79564 0.35469,-1.1954c1.18945,-0.00944 2.83065,0.11734 3.67922,0.17027c3.26,-3.0103 7.23164,-2.67175 10.4973,-5.2978c0.77418,-0.62254 1.12307,-2.11411 1.99423,-2.44312c1.61584,-0.61026 3.35857,-0.16574 5.03858,-0.21297c3.66152,-0.10293 7.33405,0 10.99626,0c1.40978,0 2.83493,-0.27473 4.22933,0c0.62149,0.12244 1.05033,1.31472 1.66795,1.16189c0.50855,-0.12583 -1.10409,-0.60551 -1.21772,-1.2733c-0.33443,-1.96543 -0.02258,-4.02915 -0.0273,-6.04376c-0.00805,-3.43427 -0.22963,-6.88289 0.00721,-10.30284c0.71636,-10.34446 2.97559,-21.79156 5.85489,-31.41608c0.71925,-4.43454 2.16564,-9.03769 2.61631,-13.49938c0.22278,-2.20544 -0.23617,-4.47141 -0.0039,-6.67514c0.37884,-3.59436 2.01051,-9.16146 0.29998,-12.73582c-1.9908,-4.16002 -6.20765,-3.61683 -7.76764,-8.23406c-0.4558,-1.34907 -0.13426,-2.95074 -0.16097,-4.42803c-0.06228,-3.44518 0.38589,-7.42279 0.01584,-10.84935c-0.14842,-1.3744 -0.58569,-2.67109 -0.77738,-4.03609c-0.08612,-0.61322 0.32524,-1.49583 -0.052,-1.86989c-0.36302,-0.35998 -0.8499,0.46604 -1.30113,0.5281c-0.84133,0.11574 -1.69173,0 -2.5376,0c-6.76525,0 -14.18444,-1.13876 -20.88827,-0.02096c-5.67027,0.94545 -11.13804,3.95874 -16.68985,5.54171c-5.3082,1.51352 -10.69113,3.31527 -15.97134,4.46198c0.05407,-0.62786 0.05407,-1.01333 0.05407,-1.01333l-0.25255,0.67277c0.31911,-1.80363 0.57158,-3.63513 0.74614,-5.47874c4.79093,-1.17539 9.63038,-2.72386 14.45197,-4.08851c5.70306,-1.61414 11.31659,-4.69251 17.14479,-5.64949c6.88985,-1.13128 14.4566,-0.02096 21.40502,-0.02096c1.15176,0 5.66094,-0.11771 6.31166,0.5281c1.06986,1.06179 1.20224,3.17272 1.63973,4.84483c1.07837,4.12151 0.9302,7.7338 0.9302,11.97343c0,2.25551 -0.62581,4.59313 -0.16097,6.76317c0.3385,1.58025 2.33034,1.18671 3.38738,2.04808c0.26266,0.21403 3.91457,5.03038 4.07056,5.38554c2.2907,5.21558 0.898,10.96336 0.29998,16.3613c-0.2468,2.22763 0.2229,4.52296 -0.0039,6.7543c-0.48384,4.76017 -1.98427,9.65052 -2.75958,14.36364c-3.14737,10.50019 -5.68764,23.15317 -5.67934,34.4962c0.00262,3.58103 -0.17814,7.16757 -0.0273,10.74304c0.07691,1.82298 1.412,4.1022 0.47401,5.44142c-1.17226,1.67371 -3.38188,0.94803 -5.09897,1.16189c-2.80714,0.34965 -5.63911,0 -8.45866,0c-2.25564,0 -4.51211,0.0806 -6.76693,0c-1.14087,-0.04078 -2.32282,-0.6283 -3.42008,-0.21297c-0.66393,0.25131 -0.79517,1.56751 -1.38923,2.03336c-3.63257,2.84859 -7.87208,2.82141 -11.49521,5.8934c-1.64211,0.06258 -3.30042,-0.18937 -4.93213,0.01998c-0.38117,0.4924 -0.90241,0.79584 -1.47723,0.79584c-0.13175,0 -0.26068,-0.01594 -0.38576,-0.04644c-0.12508,0.0305 -0.25401,0.04644 -0.38576,0.04644c-0.86547,0 -1.6095,-0.68788 -1.93681,-1.67294c-2.43214,0.17714 -4.97253,-0.02908 -7.42909,-0.12983c0.01668,0.15886 0.0256,0.32874 0.0256,0.51043c0,2.7978 -2.11466,2.7978 -2.11466,2.7978h-2.5376c-2.80723,0 -6.03785,0.47314 -8.79739,-0.03613c-0.88307,-0.16297 -1.65541,-0.94797 -2.5376,-1.11912c-4.46582,-0.86639 -9.51454,0.06633 -14.04098,0.03613c-1.82794,-0.0122 -3.61267,-0.74339 -5.41393,-1.15525c-2.77708,-0.63498 -6.09566,0.00346 -8.92917,-0.17684c-3.01918,-3.77457 -4.80896,-8.88521 -5.50744,-14.44699c-0.27729,-2.20797 0.2792,-4.50718 0,-6.71472c-0.2943,-2.32696 -1.39944,-4.38732 -1.69173,-6.71472c-0.59318,-4.72329 0.61368,-9.85052 0,-14.54856c-0.15184,-1.16243 -0.72269,-2.18902 -0.84587,-3.35736c-0.49784,-4.72201 0.34442,-8.56234 0.8344,-13.10032c0.12998,-1.20386 0.22147,-2.42316 0.35012,-3.63113c-0.09847,-0.20883 -0.18567,-0.45296 -0.25745,-0.73789c-0.49097,-1.94875 0.45996,-2.94364 1.00015,-3.33484c0.29568,-0.71469 1.04766,-1.97283 2.52058,-1.32325c0.15443,0.06811 0.29302,0.14671 0.41727,0.23376c2.60851,-0.69119 5.21356,-0.88333 7.87981,-1.46033c2.0522,-0.44411 3.93836,-1.90835 6.00142,-2.2534c4.45996,-0.74595 9.11428,0.58569 13.58385,-0.00734c4.04343,-0.53649 8.17058,-1.9452 12.30887,-1.11178c5.58238,1.12425 11.18411,3.23017 16.16934,6.55634c-0.74814,1.63785 -1.38637,3.37294 -2.24444,4.91355c-0.31468,0.565 -1.03964,0.6772 -1.23333,1.33057c-0.5196,1.75269 0.16815,3.76138 0.16097,5.64405c-0.00484,1.26854 0.15769,2.56079 -0.0273,3.80552c-0.12372,0.8324 -0.73547,1.43843 -0.87513,2.2664c-0.1577,0.93495 1.44755,0.11339 2.17124,0.08324c1.12726,-0.04697 2.25564,0 3.38346,0c1.18983,0 2.37965,-0.00202 3.56948,-0.00286c-0.3464,1.88698 -0.78491,3.7419 -1.22942,5.60275c-1.90798,0.01431 -3.81621,0.05605 -5.72351,-0.0043c-1.11659,-0.03533 -2.35921,0.47713 -3.34685,-0.21297c-1.27222,-0.88895 -2.49505,-2.37031 -2.94058,-4.18027c-0.35714,-1.45087 0.65453,-2.93758 0.8166,-4.44832c0.34696,-3.23417 -0.80101,-7.63148 0.13366,-10.69459c0.31307,-1.02601 0.56869,-1.74725 0.80493,-2.24137c-3.40178,0.03623 -6.69638,-2.15545 -10.10587,-2.86409c-3.81539,-0.79299 -7.6541,0.64487 -11.37537,1.12646c-4.43555,0.57403 -9.06492,-0.72828 -13.48385,-0.00734c-2.01064,0.32803 -3.84332,1.77523 -5.8407,2.22308c-2.68277,0.60153 -5.39222,0.66346 -8.03679,1.46148c-0.15462,1.30635 -0.2123,2.64485 -0.3535,3.95253c-0.42986,3.98101 -1.31539,7.38731 -0.85733,11.52032c0.12936,1.16717 0.7039,2.19276 0.84587,3.35736c0.57668,4.73065 -0.59529,9.84174 0,14.54856c0.2943,2.32696 1.39944,4.38732 1.69173,6.71472c0.27729,2.20797 -0.2792,4.50718 0,6.71472c0.37706,2.98134 1.49907,7.84839 2.95122,10.17365c2.52839,-0.31155 5.47454,-0.7132 7.98815,-0.17684c0.88024,0.18783 1.659,0.91823 2.5376,1.11912c4.10593,0.93882 9.03067,-0.06016 13.19512,-0.03613c2.10678,0.01215 4.17529,0.75084 6.2598,1.15525c2.5202,0.48893 5.55699,-0.03613 8.11992,-0.03613h0.45398c-0.02017,-0.17283 -0.03104,-0.359 -0.03104,-0.55956c0,-2.7978 2.11466,-2.7978 2.11466,-2.7978c3.46654,0 7.22771,0.58481 10.65752,0.03613c0.06552,-0.01048 0.13073,-0.02271 0.19567,-0.03655c-0.02208,0.66265 -0.0415,1.32639 -0.05831,1.99136c0.20769,-0.0902 0.42958,-0.139 0.66008,-0.139z" fill="#ff0000"/><path d="" fill="#e2ff00"/><path d="M173.26818,232.9608c-0.65177,0 -1.10265,-0.26578 -1.41458,-0.63351c0.37902,-2.73486 0.59665,-5.51539 0.61508,-8.28877c0.00433,-0.65204 0.12007,-1.34407 0.1841,-2.01865c0.37913,-1.27123 0.58741,-2.65635 0.58741,-4.10584c0,-0.53431 -0.0283,-1.05987 -0.08303,-1.57421c0.24307,-0.12689 0.53409,-0.20284 0.88252,-0.20284c2.11466,0 2.11466,2.7978 2.11466,2.7978c-0.00963,3.30895 -0.23924,6.65146 -0.83465,9.86529l0.06314,1.36293c0,0 0,2.7978 -2.11466,2.7978z" fill="#f00000"/><path d="M419.22723,192.03393c-2.5,0 -2.5,-2.5 -2.5,-2.5l0.12829,-0.12153c-0.49935,-1.65637 -1.54086,-3.21247 -2.86166,-4.3298c-1.07685,-0.91096 -2.73179,-1.31283 -3.35551,-2.57791c-0.71299,-1.44615 -0.24249,-3.21655 -0.29581,-4.82804c-0.12914,-3.90297 0.87226,-6.69656 3.30294,-9.79385c1.58919,-2.02503 3.56749,-3.3543 4.02613,-6.11227c0.31448,-1.89106 -0.41714,-3.57172 -0.86974,-5.37789c-0.75196,-3.00083 -0.57096,-5.7015 -3.8378,-6.44351c0,0 -2.37171,-0.79057 -1.58114,-3.16228c0.79057,-2.37171 3.16228,-1.58114 3.16228,-1.58114c1.19458,0.46506 2.67358,0.49244 3.58373,1.39517c4.07619,4.04299 5.8617,14.28039 3.34408,19.40477c-1.43135,2.91337 -4.02171,4.47132 -5.47259,7.29678c-0.67353,1.31164 -0.57713,2.90195 -0.65789,4.37421c-0.04539,0.82756 -0.67504,1.7318 -0.29581,2.46875c0.36183,0.70314 1.5057,0.56894 2.11708,1.07049c2.05255,1.68381 3.54706,4.11347 4.43513,6.61537l0.12829,1.70267c0,0 0,2.5 -2.5,2.5z" fill="#fe0000"/><path d="M168.42299,316.36785c-0.06543,-1.12022 -0.1253,-2.21008 -0.62753,-2.89625c-0.5391,-0.73655 -1.19224,-1.34978 -1.92485,-1.84256l0.99843,2.27459c0.52659,0.4632 0.99586,0.96553 1.22405,1.60745c0.098,0.27568 0.21032,0.56235 0.3299,0.85678zM159.81226,329.91303c-2.23586,0.73205 -4.12994,1.18541 -7.00682,0.14288c-1.41317,-0.51211 -2.33464,-1.89638 -3.44631,-2.90806c-5.04033,-4.58698 -9.13448,-13.84291 -4.16907,-20.14055c7.30073,-9.25953 25.07679,-9.43729 31.11191,1.20699c1.92189,3.38968 1.5655,7.19609 2.57094,10.83754c-1.05601,3.6672 -1.3699,6.86733 -4.70133,9.44612c-2.85203,2.2077 -10.71877,3.05815 -14.06936,1.55796c-0.09885,-0.04426 -0.19543,-0.092 -0.28997,-0.14288z" fill="#fff700"/><path d="M464.4944,63.0555c4.36527,1.14973 2.73426,3.0882 4.28854,5.67928c0.45831,0.76404 1.4752,1.10959 1.87307,1.90678c1.15611,2.31643 1.42953,5.03112 2.72307,7.27371c1.13407,1.96612 3.55521,4.43354 3.0519,7.05924c-0.3263,1.70224 -1.52859,3.19685 -2.78459,4.39123c-0.75413,0.71713 -2.04827,0.51455 -2.93945,1.05196c-1.63237,0.98436 -2.96357,2.60856 -4.80524,3.10032c-1.53601,0.41014 -3.20794,0.22743 -4.71072,0.74626c-1.09927,0.37952 -1.95412,1.2614 -2.93118,1.8921c-5.85023,0.16416 -11.74699,2.26214 -17.41265,3.67191c-3.37381,0.8395 -5.72101,2.84055 -9.70622,0.26362c-1.7627,-1.1398 -0.42624,-4.27725 -1.39012,-6.14198c-0.56361,-1.09036 -1.60098,-1.93995 -1.97114,-3.11021c-0.86207,-2.72546 -0.22384,-7.82904 1.1782,-10.24767c2.18357,-3.76683 6.66296,-5.19437 7.9638,-9.50932c0,0 0.01429,-0.04288 0.04481,-0.1152c-0.1731,-0.49689 -0.1731,-0.91843 -0.1731,-0.91843l0.41077,0.46436c0.00044,-0.0007 0.00088,-0.0014 0.00132,-0.0021c-2.31583,-3.69074 -2.54697,-7.37331 -3.93219,-11.52896c0,0 -0.79057,-2.37171 1.58114,-3.16228c0.7883,-0.26277 1.40192,-0.17618 1.8699,0.05654c4.66623,-2.85978 12.41582,-3.91173 15.64086,1.00084c1.81359,2.76257 1.08572,5.91403 1.85098,8.91614c2.03305,-0.516 8.37814,-3.2386 10.27824,-2.73816z" fill="#bdbdbd"/><path d="M451.07645,62.75233c0,1.75 -1.75,1.75 -1.75,1.75l-1.04157,-0.18475c-0.45786,0.22777 -0.95465,0.37842 -1.45768,0.51444c0.18115,0.38395 0.36598,0.77176 0.55404,1.16664l0.04681,2.22626c0,0 0,1.75 -1.75,1.75c-1.75,0 -1.75,-1.75 -1.75,-1.75l0.04681,-1.42213c-0.07263,-0.13544 -0.14403,-0.27014 -0.21427,-0.40425c-0.148,0.42157 -0.17897,0.93734 -0.4935,1.23962c-0.62355,0.59926 -1.51934,0.82661 -2.27901,1.23991c0,0 -1.56525,0.78262 -2.34787,-0.78262c-0.78262,-1.56525 0.78262,-2.34787 0.78262,-2.34787c1.05511,-0.45019 1.44975,-1.81133 2.37231,-2.49309c0.12399,-0.09163 0.25151,-0.17689 0.38205,-0.25672c-0.31634,-0.77836 -0.61095,-1.5784 -0.89564,-2.42832c0,0 -0.5534,-1.6602 1.1068,-2.21359c1.6602,-0.5534 2.21359,1.1068 2.21359,1.1068c0.25922,0.78182 0.53849,1.52519 0.83492,2.25134c0.43941,-0.15275 0.8715,-0.32009 1.28275,-0.5269l2.60682,-0.18475c0,0 1.75,0 1.75,1.75z" fill="#ff0000"/></g></g></svg>